#N canvas 244 175 450 300 10;
#X obj 102 85 inlet;
#X obj 135 132 spigot;
#X obj 211 136 spigot;
#X obj 246 98 == 0;
#X obj 197 29 inlet;
#X obj 201 67 tgl 15 0 empty empty empty 17 7 0 10 -262144 -1 -1 0
1;
#X obj 107 186 outlet;
#X obj 218 184 outlet;
#X connect 0 0 1 0;
#X connect 0 0 2 0;
#X connect 1 0 6 0;
#X connect 2 0 7 0;
#X connect 3 0 2 1;
#X connect 4 0 5 0;
#X connect 5 0 1 1;
#X connect 5 0 3 0;
