#N canvas 318 90 908 553 10;
#X obj 346 436 sys_gui;
#X obj 346 160 colorpanel;
#X obj 346 139 bng 17 250 50 0 empty empty empty 17 7 0 10 -262144
-1 -1;
#X text 376 138 choose a color;
#N canvas 5 52 454 304 generate 0;
#X obj 101 15 inlet;
#X obj 103 275 outlet;
#X obj 103 58 unpack float float float;
#X obj 103 82 * 255;
#X obj 103 105 int;
#X obj 103 128 makefilename %x;
#X obj 203 82 * 255;
#X obj 203 105 int;
#X obj 203 128 makefilename %x;
#X obj 303 82 * 255;
#X obj 303 105 int;
#X obj 303 128 makefilename %x;
#X obj 103 163 pack symbol symbol symbol;
#X obj 103 187 zexy/makesymbol #%s%s%s;
#X connect 0 0 2 0;
#X connect 2 0 3 0;
#X connect 2 1 6 0;
#X connect 2 2 9 0;
#X connect 3 0 4 0;
#X connect 4 0 5 0;
#X connect 5 0 12 0;
#X connect 6 0 7 0;
#X connect 7 0 8 0;
#X connect 8 0 12 1;
#X connect 9 0 10 0;
#X connect 10 0 11 0;
#X connect 11 0 12 2;
#X connect 12 0 13 0;
#X connect 13 0 1 0;
#X restore 346 186 pd generate web color;
#X obj -7 49 loadbang;
#X obj 346 227 trigger bang anything;
#X msg 105 178 set text_color #29ff26;
#X text 372 298 http://puredata.info/docs/guiplugins/GuiPluginsAPI/
;
#X msg 145 218 set atom_box_fill #2a2a2b;
#X msg 25 98 set msg_nlet #ff5953;
#X msg 125 198 set obj_box_fill #2a2a2f;
#X msg 85 158 set msg_box_fill #2a2a2c;
#X msg 65 138 set box_outline #3e3e3e;
#X msg 346 256 set text_color #30c40;
#X msg 346 206 set set text_color \$1;
#X msg 165 238 set select_color #29ffff;
#X msg 45 118 set canvas_fill #121212;
#X msg 184 257 set msg_cord #343434;
#X text 146 51 Opening this patch first for party friendly colors;
#X connect 1 0 4 0;
#X connect 2 0 1 0;
#X connect 4 0 15 0;
#X connect 5 0 17 0;
#X connect 5 0 13 0;
#X connect 5 0 12 0;
#X connect 5 0 7 0;
#X connect 5 0 11 0;
#X connect 5 0 18 0;
#X connect 5 0 9 0;
#X connect 5 0 16 0;
#X connect 5 0 10 0;
#X connect 6 0 14 0;
#X connect 6 1 14 0;
#X connect 7 0 0 0;
#X connect 9 0 0 0;
#X connect 10 0 0 0;
#X connect 11 0 0 0;
#X connect 12 0 0 0;
#X connect 13 0 0 0;
#X connect 14 0 0 0;
#X connect 15 0 6 0;
#X connect 16 0 0 0;
#X connect 17 0 0 0;
#X connect 18 0 0 0;
