#N canvas 480 1119 908 553 10;
#X obj -14 275 sys_gui;
#X obj 350 0 colorpanel;
#X obj 349 -25 bng 17 250 50 0 empty empty empty 17 7 0 10 -262144
-1 -1;
#X text 379 -26 choose a color;
#N canvas 5 52 454 304 generate 0;
#X obj 101 15 inlet;
#X obj 103 275 outlet;
#X obj 103 58 unpack float float float;
#X obj 103 82 * 255;
#X obj 103 105 int;
#X obj 103 128 makefilename %x;
#X obj 203 82 * 255;
#X obj 203 105 int;
#X obj 203 128 makefilename %x;
#X obj 303 82 * 255;
#X obj 303 105 int;
#X obj 303 128 makefilename %x;
#X obj 103 163 pack symbol symbol symbol;
#X obj 103 187 zexy/makesymbol #%s%s%s;
#X connect 0 0 2 0;
#X connect 2 0 3 0;
#X connect 2 1 6 0;
#X connect 2 2 9 0;
#X connect 3 0 4 0;
#X connect 4 0 5 0;
#X connect 5 0 12 0;
#X connect 6 0 7 0;
#X connect 7 0 8 0;
#X connect 8 0 12 1;
#X connect 9 0 10 0;
#X connect 10 0 11 0;
#X connect 11 0 12 2;
#X connect 12 0 13 0;
#X connect 13 0 1 0;
#X restore 350 26 pd generate web color;
#X obj -53 79 loadbang;
#X obj 344 87 trigger bang anything;
#X msg -14 135 set canvas_fill #000;
#X msg 60 209 set text_color #29ff26;
#X floatatom 560 184 5 0 0 0 - - -;
#X text 372 298 http://puredata.info/docs/guiplugins/GuiPluginsAPI/
;
#X msg 153 314 set msg_cord #2e2e2e;
#X msg 109 258 set atom_box_fill #2a2a2b;
#X msg 337 209 set select_color #746b6e;
#X msg 83 356 set msg_nlet #ff5953;
#X msg 85 234 set obj_box_fill #2a2a2f;
#X msg 35 184 set msg_box_fill #2a2a2c;
#X msg 10 159 set box_outline #3e3e3e;
#X msg 148 291 set select_color #29ff26;
#X msg 344 116 set text_color #30c40;
#X msg 353 57 set set text_color \$1;
#X connect 1 0 4 0;
#X connect 2 0 1 0;
#X connect 4 0 20 0;
#X connect 5 0 7 0;
#X connect 5 0 17 0;
#X connect 5 0 16 0;
#X connect 5 0 8 0;
#X connect 5 0 15 0;
#X connect 5 0 11 0;
#X connect 5 0 12 0;
#X connect 5 0 18 0;
#X connect 5 0 14 0;
#X connect 6 0 19 0;
#X connect 6 1 19 0;
#X connect 7 0 0 0;
#X connect 8 0 0 0;
#X connect 11 0 0 0;
#X connect 12 0 0 0;
#X connect 14 0 0 0;
#X connect 15 0 0 0;
#X connect 16 0 0 0;
#X connect 17 0 0 0;
#X connect 18 0 0 0;
#X connect 19 0 0 0;
#X connect 20 0 6 0;
