#N canvas -2 41 1278 686 10;
#X declare -lib mrpeach;
#X obj 46 599 freeliner_OSC 1;
#X obj 139 580 tgl 15 0 empty empty empty 17 7 0 10 -262144 -1 -1 0
1;
#X obj 9 8 r beatcount-1;
#X floatatom 9 30 5 0 0 0 - - -;
#X obj 107 13 notein;
#X obj 107 48 pack f f f;
#X obj 196 30 spigot;
#X obj 196 56 s btn;
#X obj 1198 639 s freeliner-1;
#X msg 1198 613 tr A;
#X msg 1234 613 tr B;
#X msg 1269 613 tr C;
#X msg 1304 613 tr D;
#X obj 113 95 s notes;
#X obj 663 114 s freeliner-1;
#X obj 1200 539 r btn;
#X obj 1198 581 sel 60 70 40 50;
#X obj 1162 350 r btn;
#X floatatom 246 58 5 0 0 0 - - -;
#X obj 1147 389 sel 20 45 18 40;
#X obj 1174 514 s freeliner-1;
#X msg 46 560 connect 127.0.0.1 6667;
#X msg 1145 416 tg D 4;
#X msg 1162 439 tg D 5;
#X msg 1185 462 tg D 6;
#X msg 1214 484 tg D 7;
#X msg 588 97 tw A q 20;
#X text 961 637 add trails overide;
#X text 947 614 reverse all?;
#X obj 772 30 spogle;
#X obj 772 52 % 2;
#X obj 772 10 r beatcount-1;
#X obj 772 72 + 1;
#X obj 772 112 s freeliner-1;
#X msg 772 92 tw A q \$1;
#X msg 469 92 trails \$1;
#X obj 469 54 vsl 15 30 0 100 0 0 empty empty empty 0 -9 0 10 -262144
-1 -1 0 1;
#X obj 469 115 s freeliner-1;
#X msg 337 155 tw AB q \$1;
#X obj 337 125 hradio 15 1 0 8 empty empty empty 0 -8 0 10 -262144
-1 -1 0;
#X msg 663 92 cl AB \$1 \$2 \$3 \$4;
#X msg 590 137 tw B q 1;
#X msg 124 388 tg AB 2;
#X obj 337 178 s freeliner-1;
#X obj 129 416 s freeliner-1;
#X obj 663 17 fl_rgba;
#X obj 22 85 ctlin;
#X obj 109 232 simple_lpd8 1;
#X obj 22 120 pack f f f;
#X floatatom 17 144 5 0 0 0 - - -;
#X floatatom 53 144 5 0 0 0 - - -;
#X floatatom 89 145 5 0 0 0 - - -;
#X obj 195 117 print;
#X msg 65 526 connect 10.0.254.106 6667;
#X obj 460 257 s freeliner-1;
#X msg 460 234 rk t 0 1;
#X obj 345 267 % 16;
#X obj 345 289 hradio 15 1 0 16 empty empty empty 0 -8 0 10 -33289
-260097 -1 14;
#X msg 76 489 connect 10.0.254.117 6667;
#X obj 408 487 hradio 15 1 0 8 empty empty empty 0 -8 0 10 -262144
-1 -1 0;
#X obj 408 540 s freeliner-1;
#X msg 408 517 tw AB v \$1;
#X obj 948 586 s freeliner-\$1;
#X msg 948 563 rk q 0 1;
#X obj 951 498 key;
#X obj 958 526 spigot;
#X obj 1009 495 tgl 15 0 empty empty empty 17 7 0 10 -262144 -1 -1
0 1;
#X obj 609 491 hradio 15 1 0 8 empty empty empty 0 -8 0 10 -262144
-1 -1 0;
#X obj 609 544 s freeliner-1;
#X msg 608 521 tw A b \$1;
#X obj 424 388 s freeliner-1;
#X obj 513 381 s freeliner-1;
#X msg 513 358 tg B 2;
#X msg 427 364 tg C 3;
#X obj 918 16 tgl 15 0 empty empty empty 17 7 0 10 -262144 -1 -1 0
1;
#X obj 918 34 sel 0 1;
#X msg 913 88 tw A u \$1;
#X obj 913 111 s freeliner-1;
#X msg 913 63 2;
#X msg 946 62 1;
#X obj 1014 16 tgl 15 0 empty empty empty 17 7 0 10 -262144 -1 -1 0
1;
#X obj 1014 34 sel 0 1;
#X obj 1009 111 s freeliner-1;
#X msg 1009 63 2;
#X msg 1042 62 1;
#X obj 1106 16 tgl 15 0 empty empty empty 17 7 0 10 -262144 -1 -1 0
1;
#X obj 1106 34 sel 0 1;
#X obj 1101 111 s freeliner-1;
#X msg 1101 63 2;
#X msg 1134 62 1;
#X obj 1195 16 tgl 15 0 empty empty empty 17 7 0 10 -262144 -1 -1 0
1;
#X obj 1195 34 sel 0 1;
#X obj 1190 111 s freeliner-1;
#X msg 1190 63 2;
#X msg 1223 62 1;
#X obj 917 142 tgl 15 0 empty empty empty 17 7 0 10 -262144 -1 -1 0
1;
#X obj 917 160 sel 0 1;
#X obj 912 237 s freeliner-1;
#X msg 912 189 2;
#X msg 945 188 1;
#X obj 1013 142 tgl 15 0 empty empty empty 17 7 0 10 -262144 -1 -1
0 1;
#X obj 1013 160 sel 0 1;
#X obj 1008 237 s freeliner-1;
#X msg 1008 189 2;
#X msg 1041 188 1;
#X obj 1105 142 tgl 15 0 empty empty empty 17 7 0 10 -262144 -1 -1
0 1;
#X obj 1105 160 sel 0 1;
#X obj 1100 237 s freeliner-1;
#X msg 1100 189 2;
#X msg 1133 188 1;
#X obj 1194 142 tgl 15 0 empty empty empty 17 7 0 10 -262144 -1 -1
0 1;
#X obj 1194 160 sel 0 1;
#X obj 1189 237 s freeliner-1;
#X msg 1189 189 2;
#X msg 1222 188 1;
#X msg 912 214 tw B u \$1;
#X msg 1008 214 tw D u \$1;
#X msg 1009 88 tw C u \$1;
#X msg 1101 88 tw E u \$1;
#X msg 1100 214 tw F u \$1;
#X msg 1190 88 tw G u \$1;
#X msg 1189 214 tw H u \$1;
#X obj 700 328 list_record;
#X obj 763 307 r beatcount-1;
#X obj 700 286 r freeliner-1;
#X obj 345 225 r freeliner-1;
#X obj 345 246 route beat;
#X connect 1 0 0 1;
#X connect 2 0 3 0;
#X connect 4 0 5 0;
#X connect 4 0 6 0;
#X connect 4 1 5 1;
#X connect 4 1 6 1;
#X connect 4 2 5 2;
#X connect 5 0 13 0;
#X connect 6 0 7 0;
#X connect 6 0 18 0;
#X connect 9 0 8 0;
#X connect 10 0 8 0;
#X connect 11 0 8 0;
#X connect 12 0 8 0;
#X connect 16 0 9 0;
#X connect 16 1 10 0;
#X connect 16 2 11 0;
#X connect 16 3 12 0;
#X connect 19 0 22 0;
#X connect 19 1 23 0;
#X connect 19 2 24 0;
#X connect 19 3 25 0;
#X connect 21 0 0 0;
#X connect 22 0 20 0;
#X connect 23 0 20 0;
#X connect 24 0 20 0;
#X connect 25 0 20 0;
#X connect 26 0 14 0;
#X connect 29 0 30 0;
#X connect 30 0 32 0;
#X connect 31 0 29 0;
#X connect 32 0 34 0;
#X connect 34 0 33 0;
#X connect 35 0 37 0;
#X connect 36 0 35 0;
#X connect 38 0 43 0;
#X connect 39 0 38 0;
#X connect 40 0 14 0;
#X connect 41 0 14 0;
#X connect 42 0 44 0;
#X connect 45 0 40 0;
#X connect 46 0 48 0;
#X connect 46 0 49 0;
#X connect 46 1 48 1;
#X connect 46 1 50 0;
#X connect 46 2 48 2;
#X connect 46 2 51 0;
#X connect 53 0 0 0;
#X connect 55 0 54 0;
#X connect 56 0 57 0;
#X connect 58 0 0 0;
#X connect 59 0 61 0;
#X connect 61 0 60 0;
#X connect 63 0 62 0;
#X connect 64 0 65 0;
#X connect 65 0 63 0;
#X connect 66 0 65 1;
#X connect 67 0 69 0;
#X connect 69 0 68 0;
#X connect 72 0 71 0;
#X connect 73 0 70 0;
#X connect 74 0 75 0;
#X connect 75 0 78 0;
#X connect 75 1 79 0;
#X connect 76 0 77 0;
#X connect 78 0 76 0;
#X connect 79 0 76 0;
#X connect 80 0 81 0;
#X connect 81 0 83 0;
#X connect 81 1 84 0;
#X connect 83 0 117 0;
#X connect 84 0 117 0;
#X connect 85 0 86 0;
#X connect 86 0 88 0;
#X connect 86 1 89 0;
#X connect 88 0 118 0;
#X connect 89 0 118 0;
#X connect 90 0 91 0;
#X connect 91 0 93 0;
#X connect 91 1 94 0;
#X connect 93 0 120 0;
#X connect 94 0 120 0;
#X connect 95 0 96 0;
#X connect 96 0 98 0;
#X connect 96 1 99 0;
#X connect 98 0 115 0;
#X connect 99 0 115 0;
#X connect 100 0 101 0;
#X connect 101 0 103 0;
#X connect 101 1 104 0;
#X connect 103 0 116 0;
#X connect 104 0 116 0;
#X connect 105 0 106 0;
#X connect 106 0 108 0;
#X connect 106 1 109 0;
#X connect 108 0 119 0;
#X connect 109 0 119 0;
#X connect 110 0 111 0;
#X connect 111 0 113 0;
#X connect 111 1 114 0;
#X connect 113 0 121 0;
#X connect 114 0 121 0;
#X connect 115 0 97 0;
#X connect 116 0 102 0;
#X connect 117 0 82 0;
#X connect 118 0 87 0;
#X connect 119 0 107 0;
#X connect 120 0 92 0;
#X connect 121 0 112 0;
#X connect 123 0 122 1;
#X connect 124 0 122 0;
#X connect 125 0 126 0;
#X connect 126 0 56 0;
