#N canvas 16 81 1278 686 10;
#X declare -lib mrpeach;
#X obj 6 619 freeliner_OSC 1;
#X obj 99 600 tgl 15 0 empty empty empty 17 7 0 10 -262144 -1 -1 0
1;
#X obj 107 13 notein;
#X obj 107 48 pack f f f;
#X obj 196 30 spigot;
#X obj 196 56 s btn;
#X obj 106 80 s notes;
#X obj 1142 117 s freeliner-1;
#X floatatom 246 58 5 0 0 0 - - -;
#X text 8 458 add trails overide;
#X text 7 445 reverse all?;
#X obj 976 51 spogle;
#X obj 976 73 % 2;
#X obj 976 31 r beatcount-1;
#X obj 976 93 + 1;
#X obj 976 133 s freeliner-1;
#X msg 976 113 tw A q \$1;
#X msg 336 617 trails \$1;
#X obj 336 579 vsl 15 30 0 100 0 0 empty empty empty 0 -9 0 10 -262144
-1 -1 0 1;
#X obj 336 640 s freeliner-1;
#X obj 871 501 hradio 15 1 0 8 empty empty empty 0 -8 0 10 -262144
-1 -1 0;
#X msg 1142 95 cl AB \$1 \$2 \$3 \$4;
#X obj 871 554 s freeliner-1;
#X obj 1142 20 fl_rgba;
#X obj 3 20 ctlin;
#X obj -4 104 simple_lpd8 1;
#X obj 3 55 pack f f f;
#X floatatom -2 79 5 0 0 0 - - -;
#X floatatom 34 79 5 0 0 0 - - -;
#X floatatom 70 80 5 0 0 0 - - -;
#X obj 842 107 s freeliner-1;
#X msg 842 84 rk t 0 1;
#X obj 409 66 % 16;
#X obj 409 88 hradio 15 1 0 16 empty empty empty 0 -8 0 10 -33289 -260097
-1 4;
#X obj 1111 301 key;
#X obj 1118 329 spigot;
#X obj 1169 298 tgl 15 0 empty empty empty 17 7 0 10 -262144 -1 -1
0 1;
#X obj 409 24 r freeliner-1;
#X obj 409 45 route beat;
#X obj 1108 389 s freeliner-1;
#X msg 1074 100 tw A q 26;
#X msg 1108 366 rk \$1 0 1;
#X msg 871 533 tw AB q \$1;
#X obj 1038 579 s freeliner-1;
#X obj 1038 535 hradio 15 1 0 8 empty empty empty 0 -8 0 10 -262144
-1 -1 0;
#X msg 1038 556 tw A i \$1;
#X obj 210 642 s freeliner-1;
#X msg 210 619 tw A l \$1;
#X floatatom 209 584 5 0 0 0 - - -;
#X text 893 55 tap tempo;
#X obj 842 48 bng 30 250 50 0 empty empty empty 17 7 0 10 -1 -4034
-1;
#X msg 6 569 connect 127.0.0.1 6667;
#X obj 166 80 print;
#X text 641 114 cubes 3 to 25;
#X obj 15 257 r freeliner-1;
#X obj 15 309 route beat;
#X obj 15 330 % 22;
#X obj 15 352 + 3;
#X msg 15 374 tg C \$1;
#X obj 15 398 s freeliner-1;
#X text 660 147 3 to 16 17 to 25;
#X obj 15 281 spogle;
#X obj 147 226 r freeliner-1;
#X obj 147 278 route beat;
#X obj 147 321 + 3;
#X msg 147 397 tg C \$1;
#X obj 147 442 s freeliner-1;
#X obj 147 250 spogle;
#X obj 147 299 % 13;
#X obj 173 346 min 26;
#X obj 175 368 change;
#X obj 291 161 r freeliner-1;
#X obj 291 213 route beat;
#X obj 286 323 + 3;
#X msg 286 425 tg C \$1;
#X obj 284 469 s freeliner-1;
#X obj 291 185 spogle;
#X obj 312 375 change;
#X obj 394 311 usi 10;
#X floatatom 224 383 5 0 0 0 - - -;
#X floatatom 126 357 5 0 0 0 - - -;
#X obj 173 321 + 13;
#X obj 497 156 r freeliner-1;
#X obj 544 288 alternate;
#X obj 477 191 spogle;
#X msg 540 400 tw G d \$1;
#X obj 542 442 s freeliner-1;
#X msg 551 362 8;
#X msg 529 335 6;
#X obj 577 200 r freeliner-1;
#X floatatom 286 397 5 0 0 0 - - -;
#X obj 312 348 min 25;
#X obj 286 301 % 10;
#X obj 312 323 + 10;
#X obj 870 257 sel 1;
#X obj 861 174 r freeliner-1;
#X obj 861 195 route beat;
#X obj 864 225 % 2;
#X obj 936 280 bng 15 250 50 0 empty empty empty 17 7 0 10 -262144
-1 -1;
#X obj 833 341 random 22;
#X obj 867 387 + 3;
#X msg 951 399 tg C \$1;
#X obj 949 443 s freeliner-1;
#X obj 561 239 t b;
#X obj 638 285 % 16;
#X obj 638 243 r freeliner-1;
#X obj 638 264 route beat;
#X obj 649 325 spogle;
#X obj 661 360 sel 1;
#X obj 468 511 29;
#X obj 678 650 s freeliner-1;
#X msg 678 625 tx 29 0 \$1;
#X obj 727 470 % 16;
#X obj 727 428 r freeliner-1;
#X obj 727 449 route beat;
#X floatatom 729 489 5 0 0 0 - - -;
#X msg 531 574 AZIZ_LIGHT_CREW;
#X obj 624 521 sel 1 4 8 12 16;
#X obj 634 627 symbol;
#X msg 642 574 FREELINER;
#X msg 717 572 STAY_FREE;
#X msg 785 572 ANOMALIE;
#X obj 909 394 spogle;
#X obj 838 309 uzi 7;
#X connect 1 0 0 1;
#X connect 2 0 3 0;
#X connect 2 0 4 0;
#X connect 2 1 3 1;
#X connect 2 1 4 1;
#X connect 2 2 3 2;
#X connect 3 0 6 0;
#X connect 3 0 52 0;
#X connect 4 0 5 0;
#X connect 4 0 8 0;
#X connect 11 0 12 0;
#X connect 12 0 14 0;
#X connect 13 0 11 0;
#X connect 14 0 16 0;
#X connect 16 0 15 0;
#X connect 17 0 19 0;
#X connect 18 0 17 0;
#X connect 20 0 42 0;
#X connect 21 0 7 0;
#X connect 23 0 21 0;
#X connect 24 0 26 0;
#X connect 24 0 27 0;
#X connect 24 1 26 1;
#X connect 24 1 28 0;
#X connect 24 2 26 2;
#X connect 24 2 29 0;
#X connect 31 0 30 0;
#X connect 32 0 33 0;
#X connect 34 0 35 0;
#X connect 35 0 41 0;
#X connect 36 0 35 1;
#X connect 37 0 38 0;
#X connect 38 0 32 0;
#X connect 40 0 7 0;
#X connect 41 0 39 0;
#X connect 42 0 22 0;
#X connect 44 0 45 0;
#X connect 45 0 43 0;
#X connect 47 0 46 0;
#X connect 48 0 47 0;
#X connect 50 0 31 0;
#X connect 51 0 0 0;
#X connect 54 0 61 0;
#X connect 55 0 56 0;
#X connect 56 0 57 0;
#X connect 57 0 58 0;
#X connect 58 0 59 0;
#X connect 61 0 55 0;
#X connect 62 0 67 0;
#X connect 63 0 68 0;
#X connect 64 0 65 0;
#X connect 64 0 80 0;
#X connect 64 0 81 0;
#X connect 67 0 63 0;
#X connect 68 0 64 0;
#X connect 69 0 70 0;
#X connect 70 0 65 0;
#X connect 70 0 79 0;
#X connect 71 0 76 0;
#X connect 72 0 92 0;
#X connect 73 0 90 0;
#X connect 73 0 93 0;
#X connect 74 0 75 0;
#X connect 76 0 72 0;
#X connect 77 0 90 0;
#X connect 81 0 69 0;
#X connect 82 0 84 0;
#X connect 83 0 88 0;
#X connect 83 1 87 0;
#X connect 85 0 86 0;
#X connect 87 0 85 0;
#X connect 88 0 85 0;
#X connect 89 0 103 0;
#X connect 90 0 74 0;
#X connect 91 0 77 0;
#X connect 92 0 73 0;
#X connect 93 0 91 0;
#X connect 94 0 98 0;
#X connect 94 0 123 0;
#X connect 95 0 96 0;
#X connect 96 0 97 0;
#X connect 97 0 94 0;
#X connect 99 0 100 0;
#X connect 100 0 122 0;
#X connect 101 0 102 0;
#X connect 104 0 107 0;
#X connect 105 0 106 0;
#X connect 106 0 104 0;
#X connect 107 0 108 0;
#X connect 108 0 83 0;
#X connect 111 0 110 0;
#X connect 112 0 115 0;
#X connect 113 0 114 0;
#X connect 114 0 112 0;
#X connect 115 0 117 0;
#X connect 116 0 118 0;
#X connect 117 0 116 0;
#X connect 117 1 119 0;
#X connect 117 2 120 0;
#X connect 117 3 121 0;
#X connect 118 0 111 0;
#X connect 119 0 118 0;
#X connect 120 0 118 0;
#X connect 121 0 118 0;
#X connect 122 0 101 0;
#X connect 123 0 99 0;
