#N canvas 35 1200 1278 686 10;
#X declare -lib mrpeach;
#X obj 46 599 freeliner_OSC 1;
#X obj 139 580 tgl 15 0 empty empty empty 17 7 0 10 -262144 -1 -1 0
1;
#X obj 9 8 r beatcount-1;
#X floatatom 9 30 5 0 0 0 - - -;
#X obj 107 13 notein;
#X obj 107 48 pack f f f;
#X obj 196 30 spigot;
#X obj 196 56 s btn;
#X obj 113 95 s notes;
#X obj 1142 117 s freeliner-1;
#X floatatom 246 58 5 0 0 0 - - -;
#X text 28 357 add trails overide;
#X text 27 344 reverse all?;
#X obj 976 51 spogle;
#X obj 976 73 % 2;
#X obj 976 31 r beatcount-1;
#X obj 976 93 + 1;
#X obj 976 133 s freeliner-1;
#X msg 976 113 tw A q \$1;
#X msg 379 599 trails \$1;
#X obj 379 561 vsl 15 30 0 100 0 0 empty empty empty 0 -9 0 10 -262144
-1 -1 0 1;
#X obj 379 622 s freeliner-1;
#X obj 871 501 hradio 15 1 0 8 empty empty empty 0 -8 0 10 -262144
-1 -1 0;
#X msg 1142 95 cl AB \$1 \$2 \$3 \$4;
#X obj 871 554 s freeliner-1;
#X obj 1142 20 fl_rgba;
#X obj 22 85 ctlin;
#X obj 46 223 simple_lpd8 1;
#X obj 22 120 pack f f f;
#X floatatom 17 144 5 0 0 0 - - -;
#X floatatom 53 144 5 0 0 0 - - -;
#X floatatom 89 145 5 0 0 0 - - -;
#X obj 842 107 s freeliner-1;
#X msg 842 84 rk t 0 1;
#X obj 409 66 % 16;
#X obj 409 88 hradio 15 1 0 16 empty empty empty 0 -8 0 10 -33289 -260097
-1 10;
#X obj 1111 301 key;
#X obj 1118 329 spigot;
#X obj 1169 298 tgl 15 0 empty empty empty 17 7 0 10 -262144 -1 -1
0 1;
#X obj 30 308 list_record;
#X obj 93 287 r beatcount-1;
#X obj 30 266 r freeliner-1;
#X obj 409 24 r freeliner-1;
#X obj 409 45 route beat;
#X obj 1108 389 s freeliner-1;
#X msg 1074 100 tw A q 26;
#X msg 1108 366 rk \$1 0 1;
#X msg 871 533 tw AB q \$1;
#X obj 1038 579 s freeliner-1;
#X obj 1038 535 hradio 15 1 0 8 empty empty empty 0 -8 0 10 -262144
-1 -1 0;
#X msg 1038 556 tw A i \$1;
#X obj 210 642 s freeliner-1;
#X msg 210 619 tw A l \$1;
#X floatatom 238 581 5 0 0 0 - - -;
#N canvas 866 803 450 300 SCRAPS 0;
#X restore 12 178 pd SCRAPS;
#X text 893 55 tap tempo;
#X obj 842 48 bng 30 250 50 0 empty empty empty 17 7 0 10 -1 -4034
-1;
#X msg 60 513 connect 127.0.0.1 6667;
#X obj 530 255;
#X obj 365 196 hradio 15 1 0 8 empty empty empty 0 -8 0 10 -262144
-1 -1 1;
#X obj 365 249 s freeliner-1;
#X obj 443 170 + 1;
#X msg 365 228 tw A e \$1;
#X obj 398 155 % 6;
#X obj 243 115 print;
#X connect 1 0 0 1;
#X connect 2 0 3 0;
#X connect 4 0 5 0;
#X connect 4 0 6 0;
#X connect 4 1 5 1;
#X connect 4 1 6 1;
#X connect 4 2 5 2;
#X connect 5 0 8 0;
#X connect 5 0 64 0;
#X connect 6 0 7 0;
#X connect 6 0 10 0;
#X connect 13 0 14 0;
#X connect 14 0 16 0;
#X connect 15 0 13 0;
#X connect 16 0 18 0;
#X connect 18 0 17 0;
#X connect 19 0 21 0;
#X connect 20 0 19 0;
#X connect 22 0 47 0;
#X connect 23 0 9 0;
#X connect 25 0 23 0;
#X connect 26 0 28 0;
#X connect 26 0 29 0;
#X connect 26 1 28 1;
#X connect 26 1 30 0;
#X connect 26 2 28 2;
#X connect 26 2 31 0;
#X connect 33 0 32 0;
#X connect 34 0 35 0;
#X connect 36 0 37 0;
#X connect 37 0 46 0;
#X connect 38 0 37 1;
#X connect 40 0 39 1;
#X connect 41 0 39 0;
#X connect 42 0 43 0;
#X connect 43 0 34 0;
#X connect 45 0 9 0;
#X connect 46 0 44 0;
#X connect 47 0 24 0;
#X connect 49 0 50 0;
#X connect 50 0 48 0;
#X connect 52 0 51 0;
#X connect 53 0 52 0;
#X connect 56 0 33 0;
#X connect 57 0 0 0;
#X connect 59 0 62 0;
#X connect 62 0 60 0;
#X connect 63 0 59 0;
