#N canvas 352 228 1278 686 10;
#X declare -lib mrpeach;
#X obj 46 599 freeliner_OSC 1;
#X obj 139 580 tgl 15 0 empty empty empty 17 7 0 10 -262144 -1 -1 0
1;
#X obj 9 8 r beatcount-1;
#X floatatom 9 30 5 0 0 0 - - -;
#X obj 107 13 notein;
#X obj 107 48 pack f f f;
#X obj 196 30 spigot;
#X obj 196 56 s btn;
#X obj 113 95 s notes;
#X obj 663 114 s freeliner-1;
#X floatatom 246 58 5 0 0 0 - - -;
#X msg 46 560 connect 127.0.0.1 6667;
#X msg 588 97 tw A q 20;
#X text 28 357 add trails overide;
#X text 27 344 reverse all?;
#X obj 772 30 spogle;
#X obj 772 52 % 2;
#X obj 772 10 r beatcount-1;
#X obj 772 72 + 1;
#X obj 772 112 s freeliner-1;
#X msg 772 92 tw A q \$1;
#X msg 469 92 trails \$1;
#X obj 469 54 vsl 15 30 0 100 0 0 empty empty empty 0 -9 0 10 -262144
-1 -1 0 1;
#X obj 469 115 s freeliner-1;
#X msg 337 155 tw AB q \$1;
#X obj 337 125 hradio 15 1 0 8 empty empty empty 0 -8 0 10 -262144
-1 -1 1;
#X msg 663 92 cl AB \$1 \$2 \$3 \$4;
#X msg 590 137 tw B q 1;
#X obj 337 178 s freeliner-1;
#X obj 663 17 fl_rgba;
#X obj 22 85 ctlin;
#X obj 46 223 simple_lpd8 1;
#X obj 22 120 pack f f f;
#X floatatom 17 144 5 0 0 0 - - -;
#X floatatom 53 144 5 0 0 0 - - -;
#X floatatom 89 145 5 0 0 0 - - -;
#X obj 195 117 print;
#X obj 460 257 s freeliner-1;
#X msg 460 234 rk t 0 1;
#X obj 345 267 % 16;
#X obj 345 289 hradio 15 1 0 16 empty empty empty 0 -8 0 10 -33289
-260097 -1 0;
#X msg 197 390 rk q 0 1;
#X obj 200 325 key;
#X obj 207 353 spigot;
#X obj 258 322 tgl 15 0 empty empty empty 17 7 0 10 -262144 -1 -1 0
1;
#X obj 918 16 tgl 15 0 empty empty empty 17 7 0 10 -262144 -1 -1 0
1;
#X obj 918 34 sel 0 1;
#X msg 913 88 tw A u \$1;
#X obj 913 111 s freeliner-1;
#X msg 913 63 2;
#X msg 946 62 1;
#X obj 1014 16 tgl 15 0 empty empty empty 17 7 0 10 -262144 -1 -1 0
1;
#X obj 1014 34 sel 0 1;
#X obj 1009 111 s freeliner-1;
#X msg 1009 63 2;
#X msg 1042 62 1;
#X obj 1106 16 tgl 15 0 empty empty empty 17 7 0 10 -262144 -1 -1 0
1;
#X obj 1106 34 sel 0 1;
#X obj 1101 111 s freeliner-1;
#X msg 1101 63 2;
#X msg 1134 62 1;
#X obj 1195 16 tgl 15 0 empty empty empty 17 7 0 10 -262144 -1 -1 0
1;
#X obj 1195 34 sel 0 1;
#X obj 1190 111 s freeliner-1;
#X msg 1190 63 2;
#X msg 1223 62 1;
#X obj 917 142 tgl 15 0 empty empty empty 17 7 0 10 -262144 -1 -1 0
1;
#X obj 917 160 sel 0 1;
#X obj 912 237 s freeliner-1;
#X msg 912 189 2;
#X msg 945 188 1;
#X obj 1013 142 tgl 15 0 empty empty empty 17 7 0 10 -262144 -1 -1
0 1;
#X obj 1013 160 sel 0 1;
#X obj 1008 237 s freeliner-1;
#X msg 1008 189 2;
#X msg 1041 188 1;
#X obj 1105 142 tgl 15 0 empty empty empty 17 7 0 10 -262144 -1 -1
0 1;
#X obj 1105 160 sel 0 1;
#X obj 1100 237 s freeliner-1;
#X msg 1100 189 2;
#X msg 1133 188 1;
#X obj 1194 142 tgl 15 0 empty empty empty 17 7 0 10 -262144 -1 -1
0 1;
#X obj 1194 160 sel 0 1;
#X obj 1189 237 s freeliner-1;
#X msg 1189 189 2;
#X msg 1222 188 1;
#X msg 912 214 tw B u \$1;
#X msg 1008 214 tw D u \$1;
#X msg 1009 88 tw C u \$1;
#X msg 1101 88 tw E u \$1;
#X msg 1100 214 tw F u \$1;
#X msg 1190 88 tw G u \$1;
#X msg 1189 214 tw H u \$1;
#X obj 30 308 list_record;
#X obj 93 287 r beatcount-1;
#X obj 30 266 r freeliner-1;
#X obj 345 225 r freeliner-1;
#X obj 345 246 route beat;
#X msg 585 453 tr A;
#X obj 430 602 s freeliner-\$1;
#X obj 197 413 s freeliner-1;
#X connect 1 0 0 1;
#X connect 2 0 3 0;
#X connect 4 0 5 0;
#X connect 4 0 6 0;
#X connect 4 1 5 1;
#X connect 4 1 6 1;
#X connect 4 2 5 2;
#X connect 5 0 8 0;
#X connect 6 0 7 0;
#X connect 6 0 10 0;
#X connect 11 0 0 0;
#X connect 12 0 9 0;
#X connect 15 0 16 0;
#X connect 16 0 18 0;
#X connect 17 0 15 0;
#X connect 18 0 20 0;
#X connect 20 0 19 0;
#X connect 21 0 23 0;
#X connect 22 0 21 0;
#X connect 24 0 28 0;
#X connect 25 0 24 0;
#X connect 26 0 9 0;
#X connect 27 0 9 0;
#X connect 29 0 26 0;
#X connect 30 0 32 0;
#X connect 30 0 33 0;
#X connect 30 1 32 1;
#X connect 30 1 34 0;
#X connect 30 2 32 2;
#X connect 30 2 35 0;
#X connect 38 0 37 0;
#X connect 39 0 40 0;
#X connect 41 0 100 0;
#X connect 42 0 43 0;
#X connect 43 0 41 0;
#X connect 44 0 43 1;
#X connect 45 0 46 0;
#X connect 46 0 49 0;
#X connect 46 1 50 0;
#X connect 47 0 48 0;
#X connect 49 0 47 0;
#X connect 50 0 47 0;
#X connect 51 0 52 0;
#X connect 52 0 54 0;
#X connect 52 1 55 0;
#X connect 54 0 88 0;
#X connect 55 0 88 0;
#X connect 56 0 57 0;
#X connect 57 0 59 0;
#X connect 57 1 60 0;
#X connect 59 0 89 0;
#X connect 60 0 89 0;
#X connect 61 0 62 0;
#X connect 62 0 64 0;
#X connect 62 1 65 0;
#X connect 64 0 91 0;
#X connect 65 0 91 0;
#X connect 66 0 67 0;
#X connect 67 0 69 0;
#X connect 67 1 70 0;
#X connect 69 0 86 0;
#X connect 70 0 86 0;
#X connect 71 0 72 0;
#X connect 72 0 74 0;
#X connect 72 1 75 0;
#X connect 74 0 87 0;
#X connect 75 0 87 0;
#X connect 76 0 77 0;
#X connect 77 0 79 0;
#X connect 77 1 80 0;
#X connect 79 0 90 0;
#X connect 80 0 90 0;
#X connect 81 0 82 0;
#X connect 82 0 84 0;
#X connect 82 1 85 0;
#X connect 84 0 92 0;
#X connect 85 0 92 0;
#X connect 86 0 68 0;
#X connect 87 0 73 0;
#X connect 88 0 53 0;
#X connect 89 0 58 0;
#X connect 90 0 78 0;
#X connect 91 0 63 0;
#X connect 92 0 83 0;
#X connect 94 0 93 1;
#X connect 95 0 93 0;
#X connect 96 0 97 0;
#X connect 97 0 39 0;
#X connect 98 0 99 0;
