#N canvas 439 285 450 300 10;
#X obj 103 4 inlet;
#X obj 153 4 inlet;
#X obj 193 4 inlet;
#X obj 233 4 inlet;
#X obj 103 103 nbx 3 14 -1e+37 1e+37 0 0 empty empty empty 0 -8 0 10
-258113 -1 -1 40 256;
#X obj 103 41 min 255;
#X obj 103 61 max 0;
#X obj 153 41 min 255;
#X obj 153 61 max 0;
#X obj 103 119 nbx 3 14 -1e+37 1e+37 0 0 empty empty empty 0 -8 0 10
-4034 -1 -1 29 256;
#X obj 103 136 nbx 3 14 -1e+37 1e+37 0 0 empty empty empty 0 -8 0 10
-4160 -1 -1 117 256;
#X obj 103 153 nbx 3 14 -1e+37 1e+37 0 0 empty empty empty 0 -8 0 10
-262144 -1 -1 135 256;
#X obj 203 41 min 255;
#X obj 203 61 max 0;
#X obj 253 41 min 255;
#X obj 253 61 max 0;
#X obj 177 203 pack f f f f;
#X obj 179 168 t b f;
#X obj 216 168 t b f;
#X obj 253 168 t b f;
#X obj 163 234 outlet;
#X obj 306 87 loadbang;
#X msg 316 116 255;
#X connect 0 0 5 0;
#X connect 1 0 7 0;
#X connect 2 0 12 0;
#X connect 3 0 14 0;
#X connect 4 0 16 0;
#X connect 5 0 6 0;
#X connect 6 0 4 0;
#X connect 7 0 8 0;
#X connect 8 0 9 0;
#X connect 9 0 17 0;
#X connect 10 0 18 0;
#X connect 11 0 19 0;
#X connect 12 0 13 0;
#X connect 13 0 10 0;
#X connect 14 0 15 0;
#X connect 15 0 11 0;
#X connect 16 0 20 0;
#X connect 17 0 16 0;
#X connect 17 1 16 1;
#X connect 18 0 16 0;
#X connect 18 1 16 2;
#X connect 19 0 16 0;
#X connect 19 1 16 3;
#X connect 21 0 22 0;
#X connect 22 0 11 0;
#X connect 22 0 10 0;
#X connect 22 0 9 0;
#X connect 22 0 4 0;
#X coords 0 -1 1 1 42 70 2 100 100;
