#N canvas 73 126 801 543 10;
#X text 210 19 \$1 for corresponding freeliner instance;
#X obj 127 70 r beatcount-1;
#X obj 91 36 metro 444;
#X obj 91 13 tgl 15 0 empty empty empty 17 7 0 10 -262144 -1 -1 1 1
;
#X obj 91 58 int;
#X obj 91 80 + 1;
#X obj 127 97 int;
#X floatatom 160 97 5 0 0 0 - - -;
#X obj 127 120 % 16;
#X obj 127 143 hradio 15 1 0 16 empty empty empty 0 -8 0 10 -262144
-1 -1 12;
#X obj 127 164 hradio 15 1 0 16 empty empty empty 0 -8 0 10 -258113
-262144 -1 8;
#X obj 24 147 r stepselect-\$1;
#N canvas 898 174 450 300 lpd8_seq 1;
#X obj 221 17 notein;
#X obj 280 17 ctlin;
#X floatatom 285 65 5 0 0 0 - - -;
#X floatatom 294 45 5 0 0 0 - - -;
#X floatatom 329 33 5 0 0 0 - - -;
#X obj 24 99 / 8;
#X floatatom 24 122 5 0 0 0 - - -;
#X obj 24 76 ctlin 5 1;
#X obj 24 144 int;
#X obj 24 167 s stepselect-\$1;
#X connect 1 0 2 0;
#X connect 1 1 3 0;
#X connect 1 2 4 0;
#X connect 5 0 6 0;
#X connect 6 0 8 0;
#X connect 7 0 5 0;
#X connect 8 0 9 0;
#X restore 533 76 pd lpd8_seq;
#X obj 374 158 s step-\$0;
#X obj 47 251 fl_step \$0 0;
#X connect 1 0 6 0;
#X connect 2 0 4 0;
#X connect 3 0 2 0;
#X connect 4 0 5 0;
#X connect 5 0 4 1;
#X connect 5 0 6 0;
#X connect 6 0 7 0;
#X connect 6 0 8 0;
#X connect 8 0 9 0;
#X connect 9 0 13 0;
#X connect 11 0 10 0;
