#N canvas 446 50 1115 723 10;
#X obj 411 395 packOSC;
#X obj 411 487 udpsend;
#X obj 172 48 unpackOSC;
#X obj 172 92 int;
#X obj 172 114 + 1;
#X obj 411 310 spigot;
#X floatatom 204 115 5 0 0 0 - - -, f 5;
#X obj 739 414 s freeliner-\$1;
#X text 586 210 sample messages;
#X msg 606 263 tr A;
#X text 644 241 tweak A's color to 3;
#X text 637 262 trigger A;
#X msg 628 285 tg B 2;
#X text 672 285 trigger B on group 2;
#X msg 584 241 tw A q 3;
#X msg 650 307 cl A 255 200 100 200;
#X text 777 306 set A's custom color;
#X msg 459 469 disconnect;
#X obj 432 424 inlet;
#X obj 432 448 t a b;
#X obj 817 511 tgl 15 0 empty empty connected 17 7 0 10 -258113 -262144
-4160 1 1;
#X obj 751 511 tgl 15 0 empty empty enabled 17 7 0 10 -99865 -1 -4160
1 1;
#X obj 751 438 loadbang;
#X msg 751 459 1;
#X obj 411 248 r freeliner-\$1;
#X obj 937 511 tgl 15 0 empty empty debug 17 7 0 10 -99865 -1 -4160
0 1;
#X obj 532 328 spigot;
#X msg 716 373 rk q 0 1;
#X msg 172 136 beat \$1;
#X msg 694 351 tx 2 1 quakeroats;
#X text 804 351 set group 2's segment 1's text;
#X text 775 372 raw key input \, key \, keycode \, pressed 1 0 released.
;
#X obj 893 511 bng 15 250 50 0 empty empty sync 17 7 0 10 -99865 -257985
-4160;
#X obj 893 144 t b;
#X obj 172 26 udpreceive \$2;
#X obj 172 158 s freeliner-in-\$1;
#X obj 411 359 spigot;
#X obj 501 531 cnv 15 486 21 empty cmd-\$0 /setosc/127.0.0.1/6669 5
10 0 20 -45076 -4032 0;
#X obj 164 583 prepend label;
#X obj 164 605 s cmd-\$0;
#X obj 98 445 loadbang;
#X obj 532 350 print debug;
#X obj 172 70 route /freeliner/tick;
#X obj 164 543 spigot;
#X obj 688 510 tgl 15 0 empty empty display 17 7 0 10 -54094 -258049
-262144 1 1;
#X obj 215 525 int;
#X obj 253 543 sel 0;
#X obj 517 169 sprintf /%;
#X obj 411 278 slashit;
#X msg 253 565 no_display;
#X msg 98 468 welcome_to_freeliner_PD_patching;
#X obj 98 499 slashit;
#X connect 0 0 1 0;
#X connect 1 0 20 0;
#X connect 2 0 42 0;
#X connect 3 0 4 0;
#X connect 4 0 3 1;
#X connect 4 0 6 0;
#X connect 4 0 28 0;
#X connect 5 0 26 0;
#X connect 5 0 36 0;
#X connect 9 0 7 0;
#X connect 12 0 7 0;
#X connect 14 0 7 0;
#X connect 15 0 7 0;
#X connect 17 0 1 0;
#X connect 18 0 19 0;
#X connect 19 0 1 0;
#X connect 19 1 17 0;
#X connect 20 0 36 1;
#X connect 21 0 5 1;
#X connect 22 0 23 0;
#X connect 23 0 21 0;
#X connect 23 0 44 0;
#X connect 24 0 48 0;
#X connect 25 0 26 1;
#X connect 26 0 41 0;
#X connect 27 0 7 0;
#X connect 28 0 35 0;
#X connect 29 0 7 0;
#X connect 33 0 32 0;
#X connect 34 0 2 0;
#X connect 36 0 0 0;
#X connect 38 0 39 0;
#X connect 40 0 50 0;
#X connect 42 0 3 0;
#X connect 42 0 33 0;
#X connect 42 1 35 0;
#X connect 43 0 38 0;
#X connect 44 0 45 0;
#X connect 45 0 43 1;
#X connect 45 0 46 0;
#X connect 46 0 49 0;
#X connect 48 0 5 0;
#X connect 48 0 43 0;
#X connect 49 0 38 0;
#X connect 50 0 51 0;
#X connect 51 0 38 0;
#X coords 0 -1 1 1 490 46 1 500 509;
