#N canvas 130 1052 1117 668 10;
#X declare -lib mrpeach;
#X obj 13 8 import mrpeach;
#X obj 371 408 packOSC;
#X obj 371 500 udpsend;
#X obj 12 29 udpreceive 6668;
#X obj 12 51 unpackOSC;
#X obj 12 73 routeOSC /freeliner/tick;
#X obj 12 95 int;
#X obj 12 117 + 1;
#X obj 186 235 prepend;
#X msg 213 206 sendtyped /freeliner/tweak ssi;
#X obj 186 181 t a b;
#X obj 380 526 tgl 15 0 empty empty empty 17 7 0 10 -262144 -1 -1 1
1;
#X obj 433 455 == 0;
#X obj 379 454 spigot;
#X obj 379 433 t b;
#X obj 371 383 spigot;
#X obj 404 329 inlet;
#X obj 379 343 tgl 15 0 empty empty empty 17 7 0 10 -262144 -1 -1 1
1;
#X floatatom 44 118 5 0 0 0 - - -;
#X obj 871 245 prepend;
#X obj 871 191 t a b;
#X msg 898 216 sendtyped /freeliner/color siiii;
#X obj 413 238 prepend;
#X obj 413 184 t a b;
#X msg 440 209 sendtyped /freeliner/trigger s;
#X obj 638 241 prepend;
#X obj 638 187 t a b;
#X msg 665 212 sendtyped /freeliner/trigger si;
#X obj 12 148 s beatcount-\$1;
#X obj 498 70 r freeliner-\$1;
#X obj 498 104 route tw tr tg cl;
#X text 610 103 tweak \, trigger \, triggerGroup \, color;
#X text 17 529 add reset template message;
#X obj 788 488 s freeliner-\$1;
#X obj 143 295 print;
#X text 679 335 sample messages;
#X msg 694 377 tr A;
#X text 732 355 tweak A's color to 3;
#X text 725 376 trigger A;
#X msg 716 399 tg B 2;
#X text 760 399 trigger B on group 2;
#X msg 672 355 tw A q 3;
#X msg 738 421 cl A 255 200 100 200;
#X text 865 420 set A's custom color;
#X msg 433 501 disconnect;
#X msg 378 475 connect 192.168.1.6 6667;
#X connect 1 0 2 0;
#X connect 1 0 14 0;
#X connect 2 0 11 0;
#X connect 2 0 12 0;
#X connect 3 0 4 0;
#X connect 4 0 5 0;
#X connect 5 0 6 0;
#X connect 6 0 7 0;
#X connect 7 0 6 1;
#X connect 7 0 18 0;
#X connect 7 0 28 0;
#X connect 8 0 15 0;
#X connect 8 0 34 0;
#X connect 9 0 8 1;
#X connect 10 0 8 0;
#X connect 10 1 9 0;
#X connect 12 0 13 1;
#X connect 13 0 45 0;
#X connect 14 0 13 0;
#X connect 15 0 1 0;
#X connect 16 0 15 1;
#X connect 17 0 15 1;
#X connect 19 0 15 0;
#X connect 20 0 19 0;
#X connect 20 1 21 0;
#X connect 21 0 19 1;
#X connect 22 0 15 0;
#X connect 23 0 22 0;
#X connect 23 1 24 0;
#X connect 24 0 22 1;
#X connect 25 0 15 0;
#X connect 26 0 25 0;
#X connect 26 1 27 0;
#X connect 27 0 25 1;
#X connect 29 0 30 0;
#X connect 30 0 10 0;
#X connect 30 1 23 0;
#X connect 30 2 26 0;
#X connect 30 3 20 0;
#X connect 36 0 33 0;
#X connect 39 0 33 0;
#X connect 41 0 33 0;
#X connect 42 0 33 0;
#X connect 44 0 2 0;
#X connect 45 0 2 0;
