#N canvas -2 -4 1351 672 10;
#X declare -lib mrpeach;
#X obj 13 8 import mrpeach;
#X obj 371 408 packOSC;
#X obj 371 500 udpsend;
#X obj 12 29 udpreceive 6668;
#X obj 12 51 unpackOSC;
#X obj 12 73 routeOSC /freeliner/tick;
#X obj 12 95 int;
#X obj 12 117 + 1;
#X obj 186 235 prepend;
#X msg 213 206 sendtyped /freeliner/tweak ssi;
#X obj 186 181 t a b;
#X obj 371 383 spigot;
#X obj 502 441 inlet;
#X floatatom 44 118 5 0 0 0 - - -;
#X obj 871 245 prepend;
#X obj 871 191 t a b;
#X msg 898 216 sendtyped /freeliner/color siiii;
#X obj 413 238 prepend;
#X obj 413 184 t a b;
#X msg 440 209 sendtyped /freeliner/trigger s;
#X obj 638 241 prepend;
#X obj 638 187 t a b;
#X msg 665 212 sendtyped /freeliner/trigger si;
#X obj 498 70 r freeliner-\$1;
#X text 26 425 add reset template message;
#X obj 784 608 s freeliner-\$1;
#X text 645 425 sample messages;
#X msg 660 467 tr A;
#X text 698 445 tweak A's color to 3;
#X text 691 466 trigger A;
#X msg 682 489 tg B 2;
#X text 726 489 trigger B on group 2;
#X msg 638 445 tw A q 3;
#X msg 704 511 cl A 255 200 100 200;
#X text 831 510 set A's custom color;
#X msg 419 483 disconnect;
#X obj 392 438 inlet;
#X obj 392 462 t a b;
#X obj 502 543 tgl 15 0 empty empty connected 17 7 0 10 -262144 -1
-4160 0 1;
#X obj 502 526 tgl 15 0 empty empty enabled 17 7 0 10 -262144 -1 -4160
1 1;
#X obj 502 462 t a;
#X obj 540 441 loadbang;
#X msg 540 462 1;
#X floatatom 564 526 5 0 0 0 - beatcount-#1 -;
#X msg 726 533 trails 20;
#X obj 947 245 r freeliner-\$1;
#X obj 947 279 route trails;
#X msg 947 302 sendtyped /freeliner/trails i \$1;
#X obj 568 319 prepend;
#X obj 568 265 t a b;
#X text 746 88 tweak \, trigger \, triggerGroup \, color \, txt;
#X msg 595 290 sendtyped /freeliner/text iis;
#X msg 748 555 tx 2 1 ahhaha;
#X obj 249 487 print;
#X obj 519 503 tgl 15 0 empty empty debug 17 7 0 10 -262144 -1 -4160
0 1;
#X obj 260 451 spigot;
#X obj 1030 422 prepend;
#X obj 1030 368 t a b;
#X obj 498 104 route tw tr tg cl tx rk;
#X msg 1057 393 sendtyped /freeliner/rawkey sii;
#X msg 769 576 rk q 0 1;
#X obj 12 161 s freeliner-\$1;
#X msg 12 139 beat \$1;
#X connect 1 0 2 0;
#X connect 2 0 38 0;
#X connect 3 0 4 0;
#X connect 4 0 5 0;
#X connect 5 0 6 0;
#X connect 6 0 7 0;
#X connect 7 0 6 1;
#X connect 7 0 13 0;
#X connect 7 0 62 0;
#X connect 8 0 11 0;
#X connect 9 0 8 1;
#X connect 10 0 8 0;
#X connect 10 1 9 0;
#X connect 11 0 1 0;
#X connect 11 0 55 0;
#X connect 12 0 40 0;
#X connect 14 0 11 0;
#X connect 15 0 14 0;
#X connect 15 1 16 0;
#X connect 16 0 14 1;
#X connect 17 0 11 0;
#X connect 18 0 17 0;
#X connect 18 1 19 0;
#X connect 19 0 17 1;
#X connect 20 0 11 0;
#X connect 21 0 20 0;
#X connect 21 1 22 0;
#X connect 22 0 20 1;
#X connect 23 0 58 0;
#X connect 27 0 25 0;
#X connect 30 0 25 0;
#X connect 32 0 25 0;
#X connect 33 0 25 0;
#X connect 35 0 2 0;
#X connect 36 0 37 0;
#X connect 37 0 2 0;
#X connect 37 1 35 0;
#X connect 39 0 11 1;
#X connect 40 0 39 0;
#X connect 41 0 42 0;
#X connect 42 0 40 0;
#X connect 44 0 25 0;
#X connect 45 0 46 0;
#X connect 46 0 47 0;
#X connect 47 0 11 0;
#X connect 48 0 11 0;
#X connect 49 0 48 0;
#X connect 49 1 51 0;
#X connect 51 0 48 1;
#X connect 52 0 25 0;
#X connect 54 0 55 1;
#X connect 55 0 53 0;
#X connect 56 0 11 0;
#X connect 57 0 56 0;
#X connect 57 1 59 0;
#X connect 58 0 10 0;
#X connect 58 1 18 0;
#X connect 58 2 21 0;
#X connect 58 3 15 0;
#X connect 58 4 49 0;
#X connect 58 5 57 0;
#X connect 59 0 56 1;
#X connect 60 0 25 0;
#X connect 62 0 61 0;
#X coords 0 -1 1 1 100 60 1 500 500;
