#N canvas 436 204 837 493 10;
#X declare -lib mrpeach;
#X msg 34 82 tr A;
#X obj 105 170 s freeliner-1;
#X obj 307 194 + 1;
#X obj 307 234 s freeliner-1;
#X msg 307 214 tw A q \$1;
#X obj 560 88 s freeliner-1;
#X msg 12 -1 tw AB q \$1;
#X obj 12 -22 hradio 15 1 0 8 empty empty empty 0 -8 0 10 -262144 -1
-1 2;
#X obj 12 22 s freeliner-1;
#X obj 269 37 s freeliner-1;
#X obj 269 -82 tgl 15 0 empty empty empty 17 7 0 10 -262144 -1 -1 0
1;
#X obj 269 -35 alternate;
#X obj 269 -60 metro 300;
#X text 66 81 trigger A;
#X text 100 104 trigger D on group 2;
#X text 295 -83 set text!;
#X obj 307 174 % 4;
#X msg 12 60 tw A q 3;
#X text 71 59 set A stroke to 3;
#X obj 9 -104 r freeliner-in-1;
#X obj 9 -82 prepend set;
#X msg 9 -60 beat 525;
#X obj 307 133 route beat;
#X floatatom 307 154 5 0 0 0 - - -;
#X obj 307 92 r freeliner-in-1;
#X msg 10 262 connect 127.0.0.1 6667;
#X obj 10 287 freeliner_OSC 1 6668;
#X text 306 111 | connect to automate colors!;
#X msg 284 -11 geom text 2 0 iLove;
#X msg 269 12 geom text 2 0 freeliner;
#X msg 56 104 tr D 2;
#X msg 78 126 tr BC 2;
#X text 128 126 trigger BC on group 2;
#X msg 560 65 post tracers \$1;
#X obj 563 44 hsl 128 15 0 127 0 0 empty empty empty -2 -8 0 10 -262144
-1 -1 0 1;
#X obj 559 204 tgl 15 0 empty empty empty 17 7 0 10 -262144 -1 -1 1
1;
#X obj 559 245 s freeliner-1;
#X obj 595 155 hsl 128 15 0 127 0 0 empty empty empty -2 -8 0 10 -262144
-1 -1 6700 1;
#X obj 592 174 / 127;
#X msg 592 195 layer firstShader uniforms 0 \$1;
#X msg 559 223 layer firstShader enable \$1;
#X text 556 131 control layers!;
#X text 559 23 set tracer level;
#X connect 0 0 1 0;
#X connect 2 0 4 0;
#X connect 4 0 3 0;
#X connect 6 0 8 0;
#X connect 7 0 6 0;
#X connect 10 0 12 0;
#X connect 11 0 29 0;
#X connect 11 1 28 0;
#X connect 12 0 11 0;
#X connect 16 0 2 0;
#X connect 17 0 1 0;
#X connect 19 0 20 0;
#X connect 20 0 21 0;
#X connect 22 0 23 0;
#X connect 23 0 16 0;
#X connect 25 0 26 0;
#X connect 28 0 9 0;
#X connect 29 0 9 0;
#X connect 30 0 1 0;
#X connect 31 0 1 0;
#X connect 33 0 5 0;
#X connect 34 0 33 0;
#X connect 35 0 40 0;
#X connect 37 0 38 0;
#X connect 38 0 39 0;
#X connect 39 0 36 0;
#X connect 40 0 36 0;
