#N canvas 145 167 1224 686 10;
#X declare -lib mrpeach;
#X obj 53 5 import mrpeach;
#X obj 411 395 packOSC;
#X obj 411 487 udpsend;
#X obj 52 48 unpackOSC;
#X obj 52 92 int;
#X obj 52 114 + 1;
#X obj 411 310 spigot;
#X floatatom 84 115 5 0 0 0 - - -;
#X obj 749 423 s freeliner-\$1;
#X text 586 210 sample messages;
#X msg 606 263 tr A;
#X text 644 241 tweak A's color to 3;
#X text 637 262 trigger A;
#X msg 628 285 tg B 2;
#X text 672 285 trigger B on group 2;
#X msg 584 241 tw A q 3;
#X msg 650 307 cl A 255 200 100 200;
#X text 777 306 set A's custom color;
#X msg 459 470 disconnect;
#X obj 432 425 inlet;
#X obj 432 449 t a b;
#X obj 719 504 tgl 15 0 empty empty connected 17 7 0 10 -99865 -1 -4160
0 1;
#X obj 653 504 tgl 15 0 empty empty enabled 17 7 0 10 -99865 -1 -4160
1 1;
#X obj 653 431 loadbang;
#X msg 653 452 1;
#X obj 411 238 r freeliner-\$1;
#X obj 352 603 print;
#X obj 839 504 tgl 15 0 empty empty debug 17 7 0 10 -99865 -1 -4160
0 1;
#X obj 352 581 spigot;
#X msg 716 373 rk q 0 1;
#X msg 52 136 beat \$1;
#X msg 694 351 tx 2 1 quakeroats;
#X text 804 351 set group 2's segment 1's text;
#X text 775 372 raw key input \, key \, keycode \, pressed 1 0 released.
;
#X obj 795 504 bng 15 250 50 0 empty empty sync 17 7 0 10 -99865 -257985
-4160;
#X obj 481 174 t b;
#X obj 52 26 udpreceive \$2;
#X obj 411 262 l2s /;
#X obj 411 286 sprintf /%s;
#X obj 52 158 s freeliner-in-\$1;
#X obj 411 359 spigot;
#X obj 501 530 cnv 15 497 28 empty cmd-\$0 welcome_to_freeliner_PD_patching
10 14 0 20 -45076 -4032 0;
#X obj 211 573 prepend label;
#X obj 211 551 l2s _;
#X obj 211 529 r freeliner-\$1;
#X obj 211 595 s cmd-\$0;
#X msg 133 480 welcome to freeliner PD patching;
#X obj 133 457 loadbang;
#X obj 52 70 routeOSC /freeliner/tick;
#X connect 1 0 2 0;
#X connect 2 0 21 0;
#X connect 3 0 48 0;
#X connect 4 0 5 0;
#X connect 5 0 4 1;
#X connect 5 0 7 0;
#X connect 5 0 30 0;
#X connect 6 0 28 0;
#X connect 6 0 40 0;
#X connect 10 0 8 0;
#X connect 13 0 8 0;
#X connect 15 0 8 0;
#X connect 16 0 8 0;
#X connect 18 0 2 0;
#X connect 19 0 20 0;
#X connect 20 0 2 0;
#X connect 20 1 18 0;
#X connect 21 0 40 1;
#X connect 22 0 6 1;
#X connect 23 0 24 0;
#X connect 24 0 22 0;
#X connect 25 0 37 0;
#X connect 27 0 28 1;
#X connect 28 0 26 0;
#X connect 29 0 8 0;
#X connect 30 0 39 0;
#X connect 31 0 8 0;
#X connect 35 0 34 0;
#X connect 36 0 3 0;
#X connect 37 0 38 0;
#X connect 38 0 6 0;
#X connect 40 0 1 0;
#X connect 42 0 45 0;
#X connect 43 0 42 0;
#X connect 44 0 43 0;
#X connect 46 0 43 0;
#X connect 47 0 46 0;
#X connect 48 0 4 0;
#X connect 48 0 35 0;
#X connect 48 1 39 0;
#X coords 0 -1 1 1 500 60 1 500 500;
