#N canvas 406 1229 837 493 10;
#X declare -lib mrpeach;
#X obj 9 -104 r beatcount-1;
#X floatatom 9 -82 5 0 0 0 - - -;
#X msg 124 112 tr A;
#X obj 195 200 s freeliner-1;
#X msg 16 258 connect 127.0.0.1 6667;
#X obj 512 288 + 1;
#X obj 512 328 s freeliner-1;
#X msg 512 308 tw A q \$1;
#X msg 229 315 trails \$1;
#X obj 229 277 vsl 15 30 0 100 0 0 empty empty empty 0 -9 0 10 -262144
-1 -1 0 1;
#X obj 229 338 s freeliner-1;
#X msg 5 6 tw AB q \$1;
#X obj 5 -15 hradio 15 1 0 8 empty empty empty 0 -8 0 10 -262144 -1
-1 0;
#X msg 168 156 tg AB 2;
#X obj 5 29 s freeliner-1;
#X obj 676 138 s freeliner-1;
#X obj 676 19 tgl 15 0 empty empty empty 17 7 0 10 -262144 -1 -1 0
1;
#X obj 676 66 alternate;
#X obj 676 41 metro 300;
#X obj 16 297 freeliner_OSC 1 6668;
#X msg 146 134 tg D 2;
#X text 156 111 trigger A;
#X text 190 134 trigger D on group 2;
#X text 218 156 trigger AB on group 2;
#X text 702 18 set text!;
#X text 541 275 automate color chnages!;
#X text 53 -81 comment;
#X obj 512 205 route beat;
#X obj 512 268 % 4;
#X floatatom 512 226 5 0 0 0 - - -;
#X text 14 371 more documentation here;
#X msg 102 90 tw A q 3;
#X text 161 89 set A stroke to 3;
#X obj 512 182 r fl_sync-1;
#X msg 691 90 geom txt iLove 2 0;
#X msg 676 113 geom txt freeliner 2 0;
#X connect 0 0 1 0;
#X connect 2 0 3 0;
#X connect 4 0 19 0;
#X connect 5 0 7 0;
#X connect 7 0 6 0;
#X connect 8 0 10 0;
#X connect 9 0 8 0;
#X connect 11 0 14 0;
#X connect 12 0 11 0;
#X connect 13 0 3 0;
#X connect 16 0 18 0;
#X connect 17 0 35 0;
#X connect 17 1 34 0;
#X connect 18 0 17 0;
#X connect 20 0 3 0;
#X connect 27 0 29 0;
#X connect 28 0 5 0;
#X connect 31 0 3 0;
#X connect 33 0 27 0;
#X connect 34 0 15 0;
#X connect 35 0 15 0;
