#N canvas 472 18 869 660 10;
#X declare -lib mrpeach;
#X obj 46 599 freeliner_OSC 1;
#X obj 139 580 tgl 15 0 empty empty empty 17 7 0 10 -262144 -1 -1 0
1;
#X obj 9 8 r beatcount-1;
#X floatatom 9 30 5 0 0 0 - - -;
#X obj 107 13 notein;
#X obj 107 48 pack f f f;
#X obj 107 71 print note;
#X obj 196 30 spigot;
#X obj 196 56 s btn;
#X obj 543 531 s freeliner-1;
#X msg 543 505 tr A;
#X msg 579 505 tr B;
#X msg 614 505 tr C;
#X msg 649 505 tr D;
#X obj 113 95 s notes;
#X obj 663 114 s freeliner-1;
#X obj 543 452 r btn;
#X obj 543 473 sel 60 70 40 50;
#X obj 507 242 r btn;
#X floatatom 246 58 5 0 0 0 - - -;
#X obj 492 281 sel 20 45 18 40;
#X obj 519 406 s freeliner-1;
#X msg 46 560 connect 127.0.0.1 6667;
#X msg 490 308 tg D 4;
#X msg 507 331 tg D 5;
#X msg 530 354 tg D 6;
#X msg 559 376 tg D 7;
#X msg 588 97 tw A q 20;
#X text 392 553 add trails overide;
#X text 378 530 reverse all?;
#X obj 772 30 spogle;
#X obj 772 52 % 2;
#X obj 772 10 r beatcount-1;
#X obj 772 72 + 1;
#X obj 772 112 s freeliner-1;
#X msg 772 92 tw A q \$1;
#X msg 469 92 trails \$1;
#X obj 469 54 vsl 15 30 0 100 0 0 empty empty empty 0 -9 0 10 -262144
-1 -1 0 1;
#X obj 469 115 s freeliner-1;
#X msg 164 272 tw AB q \$1;
#X obj 164 242 hradio 15 1 0 8 empty empty empty 0 -8 0 10 -262144
-1 -1 0;
#X msg 663 92 cl AB \$1 \$2 \$3 \$4;
#X msg 590 137 tw B q 1;
#X msg 198 400 tg AB 2;
#X obj 164 295 s freeliner-1;
#X obj 203 428 s freeliner-1;
#X obj 663 17 fl_rgba;
#X obj 695 405 s freeliner-1;
#X msg 710 357 tx 2 1 hello;
#X msg 695 380 tx 2 1 noise;
#X obj 695 286 tgl 15 0 empty empty empty 17 7 0 10 -262144 -1 -1 1
1;
#X obj 695 333 alternate;
#X obj 695 308 metro 300;
#X connect 1 0 0 1;
#X connect 2 0 3 0;
#X connect 4 0 5 0;
#X connect 4 0 7 0;
#X connect 4 1 5 1;
#X connect 4 1 7 1;
#X connect 4 2 5 2;
#X connect 5 0 6 0;
#X connect 5 0 14 0;
#X connect 7 0 8 0;
#X connect 7 0 19 0;
#X connect 10 0 9 0;
#X connect 11 0 9 0;
#X connect 12 0 9 0;
#X connect 13 0 9 0;
#X connect 16 0 17 0;
#X connect 17 0 10 0;
#X connect 17 1 11 0;
#X connect 17 2 12 0;
#X connect 17 3 13 0;
#X connect 18 0 20 0;
#X connect 20 0 23 0;
#X connect 20 1 24 0;
#X connect 20 2 25 0;
#X connect 20 3 26 0;
#X connect 22 0 0 0;
#X connect 23 0 21 0;
#X connect 24 0 21 0;
#X connect 25 0 21 0;
#X connect 26 0 21 0;
#X connect 27 0 15 0;
#X connect 30 0 31 0;
#X connect 31 0 33 0;
#X connect 32 0 30 0;
#X connect 33 0 35 0;
#X connect 35 0 34 0;
#X connect 36 0 38 0;
#X connect 37 0 36 0;
#X connect 39 0 44 0;
#X connect 40 0 39 0;
#X connect 41 0 15 0;
#X connect 42 0 15 0;
#X connect 43 0 45 0;
#X connect 46 0 41 0;
#X connect 48 0 47 0;
#X connect 49 0 47 0;
#X connect 50 0 52 0;
#X connect 51 0 49 0;
#X connect 51 1 48 0;
#X connect 52 0 51 0;
