#N canvas 10 1068 1351 672 10;
#X declare -lib mrpeach;
#X obj 13 8 import mrpeach;
#X obj 371 408 packOSC;
#X obj 371 500 udpsend;
#X obj 12 29 udpreceive 6668;
#X obj 12 51 unpackOSC;
#X obj 12 73 routeOSC /freeliner/tick;
#X obj 12 95 int;
#X obj 12 117 + 1;
#X obj 371 383 spigot;
#X obj 502 441 inlet;
#X floatatom 44 118 5 0 0 0 - - -;
#X obj 443 88 r freeliner-\$1;
#X text 69 368 add reset template message;
#X obj 824 648 s freeliner-\$1;
#X text 645 425 sample messages;
#X msg 660 467 tr A;
#X text 698 445 tweak A's color to 3;
#X text 691 466 trigger A;
#X msg 682 489 tg B 2;
#X text 726 489 trigger B on group 2;
#X msg 638 445 tw A q 3;
#X msg 704 511 cl A 255 200 100 200;
#X text 831 510 set A's custom color;
#X msg 419 483 disconnect;
#X obj 392 438 inlet;
#X obj 392 462 t a b;
#X obj 502 543 tgl 15 0 empty empty connected 17 7 0 10 -99865 -1 -4160
1 1;
#X obj 502 526 tgl 15 0 empty empty enabled 17 7 0 10 -99865 -1 -4160
1 1;
#X obj 502 462 t a;
#X obj 540 441 loadbang;
#X msg 540 462 1;
#X msg 726 533 trails 20;
#X obj 851 196 r freeliner-\$1;
#X obj 851 230 route trails;
#X msg 851 253 sendtyped /freeliner/trails i \$1;
#X text 746 88 tweak \, trigger \, triggerGroup \, color \, txt;
#X obj 249 487 print;
#X obj 519 503 tgl 15 0 empty empty debug 17 7 0 10 -99865 -1 -4160
1 1;
#X obj 260 451 spigot;
#X obj 443 122 route tw tr tg cl tx rk;
#X msg 770 577 rk q 0 1;
#X obj 12 161 s freeliner-\$1;
#X msg 12 139 beat \$1;
#N canvas 596 275 450 300 tweak 0;
#X obj 118 162 prepend;
#X msg 145 133 sendtyped /freeliner/tweak ssi;
#X obj 118 108 t a b;
#X obj 118 80 inlet;
#X obj 118 190 outlet;
#X connect 0 0 4 0;
#X connect 1 0 0 1;
#X connect 2 0 0 0;
#X connect 2 1 1 0;
#X connect 3 0 2 0;
#X restore 373 222 pd tweak;
#N canvas 630 315 450 300 trigger 0;
#X obj 147 160 prepend;
#X obj 147 106 t a b;
#X msg 174 131 sendtyped /freeliner/trigger s;
#X obj 164 55 inlet;
#X obj 159 196 outlet;
#X connect 0 0 4 0;
#X connect 1 0 0 0;
#X connect 1 1 2 0;
#X connect 2 0 0 1;
#X connect 3 0 1 0;
#X restore 430 222 pd trigger;
#N canvas 732 248 450 300 text 0;
#X obj 138 179 prepend;
#X obj 138 125 t a b;
#X msg 165 150 sendtyped /freeliner/text iis;
#X obj 138 84 inlet;
#X obj 138 216 outlet;
#X connect 0 0 4 0;
#X connect 1 0 0 0;
#X connect 1 1 2 0;
#X connect 2 0 0 1;
#X connect 3 0 1 0;
#X restore 691 222 pd text;
#N canvas 650 217 450 300 triggerGroup 0;
#X obj 150 191 prepend;
#X obj 150 137 t a b;
#X msg 177 162 sendtyped /freeliner/trigger si;
#X obj 150 106 inlet;
#X obj 150 233 outlet;
#X connect 0 0 4 0;
#X connect 1 0 0 0;
#X connect 1 1 2 0;
#X connect 2 0 0 1;
#X connect 3 0 1 0;
#X restore 499 222 pd triggerGroup;
#N canvas 369 182 450 300 customColor 0;
#X obj 121 195 prepend;
#X obj 121 141 t a b;
#X msg 148 166 sendtyped /freeliner/color siiii;
#X obj 140 71 inlet;
#X obj 125 242 outlet;
#X connect 0 0 4 0;
#X connect 1 0 0 0;
#X connect 1 1 2 0;
#X connect 2 0 0 1;
#X connect 3 0 1 0;
#X restore 598 222 pd customColor;
#N canvas 829 178 450 300 rawKey 0;
#X obj 74 52 inlet;
#X obj 74 192 outlet;
#X obj 74 152 prepend;
#X obj 74 98 t a b;
#X msg 101 123 sendtyped /freeliner/rawkey sii;
#X connect 0 0 3 0;
#X connect 2 0 1 0;
#X connect 3 0 2 0;
#X connect 3 1 4 0;
#X connect 4 0 2 1;
#X restore 742 222 pd rawKey;
#X text 790 532 set tracer level;
#X msg 748 555 tx 2 1 quakeroats;
#X text 858 555 set group 2's segment 1's text;
#X text 829 576 raw key input \, key \, keycode \, pressed 1 0 released.
;
#X obj 579 528 bng 15 250 50 0 empty empty empty 17 7 0 10 -99865 -257985
-1;
#X obj 241 229 t b;
#X obj 853 286 r freeliner-\$1;
#X obj 853 311 route ledbright ledRGB;
#X msg 917 336 sendtyped /freeliner/lightdimming fff \$1 \$2 \$3;
#X msg 792 599 ledbright 0.5;
#X text 930 611 led brightness;
#X msg 813 621 ledRGB 0.5 0.8 1;
#X msg 853 361 sendtyped /freeliner/lightdimming f \$1;
#X connect 1 0 2 0;
#X connect 2 0 26 0;
#X connect 3 0 4 0;
#X connect 4 0 5 0;
#X connect 5 0 6 0;
#X connect 5 0 54 0;
#X connect 6 0 7 0;
#X connect 7 0 6 1;
#X connect 7 0 10 0;
#X connect 7 0 42 0;
#X connect 8 0 1 0;
#X connect 8 0 38 0;
#X connect 9 0 28 0;
#X connect 11 0 39 0;
#X connect 15 0 13 0;
#X connect 18 0 13 0;
#X connect 20 0 13 0;
#X connect 21 0 13 0;
#X connect 23 0 2 0;
#X connect 24 0 25 0;
#X connect 25 0 2 0;
#X connect 25 1 23 0;
#X connect 27 0 8 1;
#X connect 28 0 27 0;
#X connect 29 0 30 0;
#X connect 30 0 28 0;
#X connect 31 0 13 0;
#X connect 32 0 33 0;
#X connect 33 0 34 0;
#X connect 34 0 8 0;
#X connect 37 0 38 1;
#X connect 38 0 36 0;
#X connect 39 0 43 0;
#X connect 39 1 44 0;
#X connect 39 2 46 0;
#X connect 39 3 47 0;
#X connect 39 4 45 0;
#X connect 39 5 48 0;
#X connect 40 0 13 0;
#X connect 42 0 41 0;
#X connect 43 0 8 0;
#X connect 44 0 8 0;
#X connect 45 0 8 0;
#X connect 46 0 8 0;
#X connect 47 0 8 0;
#X connect 48 0 8 0;
#X connect 50 0 13 0;
#X connect 54 0 53 0;
#X connect 55 0 56 0;
#X connect 56 0 61 0;
#X connect 56 1 57 0;
#X connect 57 0 8 0;
#X connect 58 0 13 0;
#X connect 60 0 13 0;
#X connect 61 0 8 0;
#X coords 0 -1 1 1 100 60 1 500 500;
