#N canvas 420 104 747 526 10;
#X obj 111 72 inlet;
#X obj 111 93 route play rec;
#X obj 243 72 inlet;
#X text 285 71 sync;
#X obj 243 93 t b;
#X obj 150 135 int;
#X obj 444 250 int;
#X obj 444 273 + 1;
#X floatatom 347 361 5 0 0 0 - - -;
#X obj 394 361 int;
#X obj 445 169 tgl 15 0 empty empty empty 17 7 0 10 -262144 -1 -1 0
1;
#X obj 444 189 int;
#X msg 477 251 0;
#X obj 444 227 metro 10;
#X obj 490 139 route tap;
#X text 496 121 ignore commands;
#X obj 541 320 prepend;
#X msg 202 209 tw A b 2;
#X obj 477 206 sel 1 0;
#X obj 541 348 list append;
#X obj 621 349 any;
#X obj 523 391 any;
#X obj 512 430 print;
#X connect 0 0 1 0;
#X connect 1 1 5 0;
#X connect 1 2 14 0;
#X connect 2 0 4 0;
#X connect 5 0 10 0;
#X connect 6 0 7 0;
#X connect 7 0 6 1;
#X connect 7 0 8 0;
#X connect 7 0 9 1;
#X connect 7 0 16 1;
#X connect 10 0 11 0;
#X connect 11 0 13 0;
#X connect 11 0 18 0;
#X connect 12 0 6 1;
#X connect 13 0 6 0;
#X connect 14 1 16 0;
#X connect 16 0 19 0;
#X connect 18 0 12 0;
#X connect 18 1 21 0;
#X connect 19 0 20 0;
#X connect 19 0 21 1;
#X connect 20 0 19 1;
