#N canvas 642 611 597 475 10;
#X obj 140 94 inlet;
#X obj 226 284 outlet;
#X text 216 14 \$1 note;
#X text 214 31 \$2 chan;
#X obj 218 78 notein \$2;
#X obj 218 109 stripnote;
#X obj 154 185 tgl 15 0 empty empty empty 17 7 0 10 -262144 -1 -1 43
43;
#X obj 98 280 noteout;
#X obj 60 107 r midiLight;
#X obj 98 238 pack f \$1 \$2;
#X obj 61 131 t b;
#X msg 98 259 \$2 \$1 \$3;
#X obj 98 211 int;
#X obj 222 247 != 0;
#X obj 253 143 sel \$1;
#X connect 0 0 6 0;
#X connect 4 0 5 0;
#X connect 4 1 5 1;
#X connect 5 0 14 0;
#X connect 6 0 12 1;
#X connect 6 0 13 0;
#X connect 8 0 10 0;
#X connect 9 0 11 0;
#X connect 10 0 12 0;
#X connect 11 0 7 0;
#X connect 12 0 9 0;
#X connect 13 0 1 0;
#X connect 14 0 6 0;
