#N canvas 245 123 1066 451 10;
#X obj 682 157 s freeliner-\$1;
#X obj -182 6 notein 1;
#X obj -182 56 sel 40 36 41 37 42 38 43 39;
#X msg -182 220 A;
#X msg -163 200 B;
#X msg -143 180 C;
#X msg -123 160 D;
#X msg -103 139 E;
#X msg -83 119 F;
#X obj -191 246 symbol;
#X obj -182 31 stripnote;
#X msg -191 270 tr \$1;
#X obj -191 295 s freeliner-\$1;
#X obj -252 263 s \$0-cap;
#X obj 753 94 r \$0-cap;
#X obj 682 267 ctlin 8 1;
#X obj 682 360 s freeliner-\$1;
#X msg 682 337 trails \$1;
#X obj 682 291 moses 125;
#X msg 733 315 255;
#X obj 682 111 prepend;
#X obj 682 42 ctlin 4 1;
#X obj 682 88 prepend w;
#X obj 682 134 prepend tw;
#X obj 548 134 s freeliner-\$1;
#X obj 619 71 r \$0-cap;
#X obj 548 88 prepend;
#X obj 548 111 prepend tw;
#X obj 548 65 prepend s;
#X obj 548 42 ctlin 3 1;
#X obj 552 354 s freeliner-\$1;
#X obj 623 291 r \$0-cap;
#X obj 552 308 prepend;
#X obj 552 331 prepend tw;
#X obj 552 240 ctlin 7 1;
#X obj 552 285 prepend x;
#X obj 218 158 s freeliner-\$1;
#X obj 289 95 r \$0-cap;
#X obj 218 112 prepend;
#X obj 218 135 prepend tw;
#X obj 218 43 ctlin 1 1;
#X obj 218 89 prepend q;
#X obj 552 262 div 8;
#X obj 218 66 div 5;
#X text 216 23 strokeColor;
#X text 375 23 fillColor;
#X obj 378 158 s freeliner-\$1;
#X obj 449 95 r \$0-cap;
#X obj 378 112 prepend;
#X obj 378 135 prepend tw;
#X obj 378 66 div 5;
#X obj 378 43 ctlin 2 1;
#X obj 378 89 prepend f;
#X text 546 23 size!;
#X text 680 23 strokeWeight;
#X text 679 247 trails;
#X text 550 221 beatMult;
#X obj 682 65 div 2;
#X obj 120 414 noteout;
#X msg 120 381 43 \$1 1;
#X text 5 9 sudo rmmod snd_seq_dummy;
#X obj -63 181 tgl 15 0 empty empty empty 17 7 0 10 -262144 -1 -1 0
1;
#X obj 135 313 r freeliner-\$1;
#X obj 54 142 r beactcount-\$1;
#X msg -63 201 play \$1;
#X obj 120 356 int;
#X obj 52 339 metro 100;
#X obj 52 313 tgl 15 0 empty empty empty 17 7 0 10 -262144 -1 -1 1
1;
#X obj 135 335 route play rec;
#X obj 193 367 int;
#X msg 193 392 39 \$1 1;
#X obj -11 181 tgl 15 0 empty empty empty 17 7 0 10 -262144 -1 -1 0
1;
#X msg -11 201 rec \$1;
#X connect 1 0 10 0;
#X connect 1 1 10 1;
#X connect 2 0 3 0;
#X connect 2 1 4 0;
#X connect 2 2 5 0;
#X connect 2 3 6 0;
#X connect 2 4 7 0;
#X connect 2 5 8 0;
#X connect 2 6 61 0;
#X connect 2 7 71 0;
#X connect 3 0 9 0;
#X connect 4 0 9 0;
#X connect 5 0 9 0;
#X connect 6 0 9 0;
#X connect 7 0 9 0;
#X connect 8 0 9 0;
#X connect 9 0 11 0;
#X connect 9 0 13 0;
#X connect 10 0 2 0;
#X connect 11 0 12 0;
#X connect 14 0 20 1;
#X connect 15 0 18 0;
#X connect 17 0 16 0;
#X connect 18 0 17 0;
#X connect 18 1 19 0;
#X connect 19 0 17 0;
#X connect 20 0 23 0;
#X connect 21 0 57 0;
#X connect 22 0 20 0;
#X connect 23 0 0 0;
#X connect 25 0 26 1;
#X connect 26 0 27 0;
#X connect 27 0 24 0;
#X connect 28 0 26 0;
#X connect 29 0 28 0;
#X connect 31 0 32 1;
#X connect 32 0 33 0;
#X connect 33 0 30 0;
#X connect 34 0 42 0;
#X connect 35 0 32 0;
#X connect 37 0 38 1;
#X connect 38 0 39 0;
#X connect 39 0 36 0;
#X connect 40 0 43 0;
#X connect 41 0 38 0;
#X connect 42 0 35 0;
#X connect 43 0 41 0;
#X connect 47 0 48 1;
#X connect 48 0 49 0;
#X connect 49 0 46 0;
#X connect 50 0 52 0;
#X connect 51 0 50 0;
#X connect 52 0 48 0;
#X connect 57 0 22 0;
#X connect 59 0 58 0;
#X connect 61 0 64 0;
#X connect 62 0 68 0;
#X connect 64 0 12 0;
#X connect 65 0 59 0;
#X connect 66 0 65 0;
#X connect 66 0 69 0;
#X connect 67 0 66 0;
#X connect 68 0 65 1;
#X connect 68 1 69 1;
#X connect 69 0 70 0;
#X connect 70 0 58 0;
#X connect 71 0 72 0;
#X connect 72 0 12 0;
