#N canvas 100 185 1003 482 10;
#X obj -422 6 notein 1;
#X obj -422 56 sel 40 36 41 37 42 38 43 39;
#X msg -422 220 A;
#X msg -403 200 B;
#X msg -383 180 C;
#X msg -363 160 D;
#X msg -343 139 E;
#X msg -323 119 F;
#X obj -431 246 symbol;
#X obj -422 31 stripnote;
#X msg -431 270 tr \$1;
#X obj -431 295 s freeliner-\$1;
#X obj -492 263 s \$0-cap;
#X text -235 9 sudo rmmod snd_seq_dummy;
#X obj -202 67 r beactcount-\$1;
#X obj -295 215 metro 100;
#X obj -295 189 tgl 15 0 empty empty empty 17 7 0 10 -262144 -1 -1
1 1;
#X obj -295 168 loadbang;
#X obj -295 237 s midiLight;
#X msg -303 99 G;
#X msg -261 131 H;
#N canvas 139 270 1112 449 knobs_1 0;
#X obj 713 153 s freeliner-\$1;
#X obj 784 90 r \$0-cap;
#X obj 717 288 ctlin 8 1;
#X obj 717 381 s freeliner-\$1;
#X msg 717 358 trails \$1;
#X obj 717 312 moses 125;
#X msg 768 336 255;
#X obj 713 107 prepend;
#X obj 713 38 ctlin 4 1;
#X obj 713 84 prepend w;
#X obj 713 130 prepend tw;
#X obj 553 129 s freeliner-\$1;
#X obj 624 66 r \$0-cap;
#X obj 553 83 prepend;
#X obj 553 106 prepend tw;
#X obj 553 60 prepend s;
#X obj 553 37 ctlin 3 1;
#X obj 567 378 s freeliner-\$1;
#X obj 638 315 r \$0-cap;
#X obj 567 332 prepend;
#X obj 567 355 prepend tw;
#X obj 567 264 ctlin 7 1;
#X obj 567 309 prepend x;
#X obj 233 269 s freeliner-\$1;
#X obj 304 206 r \$0-cap;
#X obj 233 223 prepend;
#X obj 233 246 prepend tw;
#X obj 232 39 ctlin 1 1;
#X obj 233 200 prepend q;
#X obj 567 286 div 8;
#X obj 233 87 div 5;
#X text 230 19 strokeColor;
#X text 390 20 fillColor;
#X obj 393 155 s freeliner-\$1;
#X obj 464 92 r \$0-cap;
#X obj 393 109 prepend;
#X obj 393 132 prepend tw;
#X obj 393 63 div 5;
#X obj 393 40 ctlin 2 1;
#X obj 393 86 prepend f;
#X text 551 18 size!;
#X text 711 19 strokeWeight;
#X text 714 268 trails;
#X text 565 245 beatMult;
#X obj 233 116 moses 6;
#X obj 270 140 + 12;
#X obj 260 168 moses 26;
#X obj 232 60 moses 3;
#X obj 242 333 ctlin 5 1;
#X obj 386 325 ctlin 6 1;
#X text 239 313 ?????;
#X text 383 305 ??????;
#X obj 713 61 div 3;
#X connect 1 0 7 1;
#X connect 2 0 5 0;
#X connect 4 0 3 0;
#X connect 5 0 4 0;
#X connect 5 1 6 0;
#X connect 6 0 4 0;
#X connect 7 0 10 0;
#X connect 8 0 52 0;
#X connect 9 0 7 0;
#X connect 10 0 0 0;
#X connect 12 0 13 1;
#X connect 13 0 14 0;
#X connect 14 0 11 0;
#X connect 15 0 13 0;
#X connect 16 0 15 0;
#X connect 18 0 19 1;
#X connect 19 0 20 0;
#X connect 20 0 17 0;
#X connect 21 0 29 0;
#X connect 22 0 19 0;
#X connect 24 0 25 1;
#X connect 25 0 26 0;
#X connect 26 0 23 0;
#X connect 27 0 47 0;
#X connect 28 0 25 0;
#X connect 29 0 22 0;
#X connect 30 0 44 0;
#X connect 34 0 35 1;
#X connect 35 0 36 0;
#X connect 36 0 33 0;
#X connect 37 0 39 0;
#X connect 38 0 37 0;
#X connect 39 0 35 0;
#X connect 44 0 28 0;
#X connect 44 1 45 0;
#X connect 45 0 46 0;
#X connect 46 0 28 0;
#X connect 47 1 30 0;
#X connect 52 0 9 0;
#X restore -50 212 pd knobs_1;
#N canvas 428 392 1112 449 knobs_2 0;
#X obj 713 153 s freeliner-\$1;
#X obj 784 90 r \$0-cap;
#X obj 717 381 s freeliner-\$1;
#X msg 717 358 trails \$1;
#X obj 717 312 moses 125;
#X msg 768 336 255;
#X obj 713 107 prepend;
#X obj 713 84 prepend w;
#X obj 713 130 prepend tw;
#X obj 553 129 s freeliner-\$1;
#X obj 624 66 r \$0-cap;
#X obj 553 83 prepend;
#X obj 553 106 prepend tw;
#X obj 553 60 prepend s;
#X obj 567 378 s freeliner-\$1;
#X obj 638 315 r \$0-cap;
#X obj 567 332 prepend;
#X obj 567 355 prepend tw;
#X obj 567 309 prepend x;
#X obj 233 269 s freeliner-\$1;
#X obj 304 206 r \$0-cap;
#X obj 233 223 prepend;
#X obj 233 246 prepend tw;
#X obj 233 200 prepend q;
#X obj 567 286 div 8;
#X obj 233 87 div 5;
#X text 230 19 strokeColor;
#X text 390 20 fillColor;
#X obj 393 155 s freeliner-\$1;
#X obj 464 92 r \$0-cap;
#X obj 393 109 prepend;
#X obj 393 132 prepend tw;
#X obj 393 63 div 5;
#X obj 393 86 prepend f;
#X text 551 18 size!;
#X text 711 19 strokeWeight;
#X text 714 268 trails;
#X text 565 245 beatMult;
#X obj 713 61 div 2;
#X obj 233 116 moses 6;
#X obj 270 140 + 12;
#X obj 260 168 moses 26;
#X obj 232 60 moses 3;
#X text 239 313 ?????;
#X text 383 305 ??????;
#X obj 232 39 ctlin 1 2;
#X obj 393 40 ctlin 2 2;
#X obj 552 37 ctlin 3 2;
#X obj 718 39 ctlin 4 2;
#X obj 717 288 ctlin 8 2;
#X obj 567 264 ctlin 7 2;
#X obj 386 325 ctlin 6 2;
#X obj 242 333 ctlin 5 2;
#X connect 1 0 6 1;
#X connect 3 0 2 0;
#X connect 4 0 3 0;
#X connect 4 1 5 0;
#X connect 5 0 3 0;
#X connect 6 0 8 0;
#X connect 7 0 6 0;
#X connect 8 0 0 0;
#X connect 10 0 11 1;
#X connect 11 0 12 0;
#X connect 12 0 9 0;
#X connect 13 0 11 0;
#X connect 15 0 16 1;
#X connect 16 0 17 0;
#X connect 17 0 14 0;
#X connect 18 0 16 0;
#X connect 20 0 21 1;
#X connect 21 0 22 0;
#X connect 22 0 19 0;
#X connect 23 0 21 0;
#X connect 24 0 18 0;
#X connect 25 0 39 0;
#X connect 29 0 30 1;
#X connect 30 0 31 0;
#X connect 31 0 28 0;
#X connect 32 0 33 0;
#X connect 33 0 30 0;
#X connect 38 0 7 0;
#X connect 39 0 23 0;
#X connect 39 1 40 0;
#X connect 40 0 41 0;
#X connect 41 0 23 0;
#X connect 42 1 25 0;
#X connect 45 0 42 0;
#X connect 46 0 32 0;
#X connect 47 0 13 0;
#X connect 48 0 38 0;
#X connect 49 0 4 0;
#X connect 50 0 24 0;
#X restore -53 242 pd knobs_2;
#X obj -149 237 s \$0-cap;
#N canvas 192 211 840 472 togglers 0;
#X obj 135 109 tgl 15 0 empty empty empty 17 7 0 10 -262144 -1 -1 0
1;
#X obj 135 129 sel 0 1;
#X msg 130 183 tw A u \$1;
#X obj 130 206 s freeliner-1;
#X obj 249 111 tgl 15 0 empty empty empty 17 7 0 10 -262144 -1 -1 0
1;
#X obj 249 129 sel 0 1;
#X obj 244 206 s freeliner-1;
#X msg 244 158 2;
#X obj 371 111 tgl 15 0 empty empty empty 17 7 0 10 -262144 -1 -1 0
1;
#X obj 371 129 sel 0 1;
#X obj 366 206 s freeliner-1;
#X msg 366 158 2;
#X obj 460 111 tgl 15 0 empty empty empty 17 7 0 10 -262144 -1 -1 0
1;
#X obj 460 129 sel 0 1;
#X obj 455 206 s freeliner-1;
#X msg 455 158 2;
#X obj 152 257 tgl 15 0 empty empty empty 17 7 0 10 -262144 -1 -1 0
1;
#X obj 152 275 sel 0 1;
#X obj 147 352 s freeliner-1;
#X msg 147 304 2;
#X obj 248 257 tgl 15 0 empty empty empty 17 7 0 10 -262144 -1 -1 0
1;
#X obj 248 275 sel 0 1;
#X obj 243 352 s freeliner-1;
#X msg 240 288 2;
#X obj 340 257 tgl 15 0 empty empty empty 17 7 0 10 -262144 -1 -1 0
1;
#X obj 340 275 sel 0 1;
#X obj 335 352 s freeliner-1;
#X msg 335 304 2;
#X obj 429 257 tgl 15 0 empty empty empty 17 7 0 10 -262144 -1 -1 0
1;
#X obj 429 275 sel 0 1;
#X obj 424 352 s freeliner-1;
#X msg 424 304 2;
#X msg 147 329 tw B u \$1;
#X msg 243 329 tw D u \$1;
#X msg 244 183 tw C u \$1;
#X msg 366 183 tw E u \$1;
#X msg 335 329 tw F u \$1;
#X msg 455 183 tw G u \$1;
#X msg 424 329 tw H u \$1;
#X obj 249 87 midi_toggle 38 2;
#X obj 135 88 midi_toggle 37 2;
#X obj 369 87 midi_toggle 46 2;
#X obj 479 87 midi_toggle 44 2;
#X obj 145 239 midi_toggle 35 2;
#X obj 259 237 midi_toggle 36 2;
#X obj 379 237 midi_toggle 42 2;
#X obj 489 237 midi_toggle 39 2;
#X msg -73 325 A;
#X msg -54 305 B;
#X msg -34 285 C;
#X msg -14 265 D;
#X msg 6 244 E;
#X msg 26 224 F;
#X obj -82 351 symbol;
#X msg 46 204 G;
#X msg 65 184 H;
#X obj -77 131 stripnote;
#X obj -77 106 notein 2;
#X obj -73 161 sel 37 35 38 36 46 42 44 39;
#X obj -81 405 outlet;
#X msg 130 158 2;
#X msg 163 157 3;
#X msg 277 157 3;
#X msg 399 157 3;
#X msg 488 157 3;
#X msg 180 303 3;
#X msg 276 303 3;
#X msg 368 303 3;
#X msg 457 303 3;
#X obj 638 219 int;
#X obj 638 69 int;
#X obj 638 46 tgl 15 0 empty empty empty 17 7 0 10 -262144 -1 -1 0
1;
#X obj 638 21 r toggleAll;
#X connect 0 0 1 0;
#X connect 1 0 60 0;
#X connect 1 1 61 0;
#X connect 2 0 3 0;
#X connect 4 0 5 0;
#X connect 5 0 7 0;
#X connect 5 1 62 0;
#X connect 7 0 34 0;
#X connect 8 0 9 0;
#X connect 9 0 11 0;
#X connect 9 1 63 0;
#X connect 11 0 35 0;
#X connect 12 0 13 0;
#X connect 13 0 15 0;
#X connect 13 1 64 0;
#X connect 15 0 37 0;
#X connect 16 0 17 0;
#X connect 17 0 19 0;
#X connect 17 1 65 0;
#X connect 19 0 32 0;
#X connect 20 0 21 0;
#X connect 21 0 23 0;
#X connect 21 1 66 0;
#X connect 23 0 33 0;
#X connect 24 0 25 0;
#X connect 25 0 27 0;
#X connect 25 1 67 0;
#X connect 27 0 36 0;
#X connect 28 0 29 0;
#X connect 29 0 31 0;
#X connect 29 1 68 0;
#X connect 31 0 38 0;
#X connect 32 0 18 0;
#X connect 33 0 22 0;
#X connect 34 0 6 0;
#X connect 35 0 10 0;
#X connect 36 0 26 0;
#X connect 37 0 14 0;
#X connect 38 0 30 0;
#X connect 39 0 4 0;
#X connect 40 0 0 0;
#X connect 41 0 8 0;
#X connect 42 0 12 0;
#X connect 43 0 16 0;
#X connect 44 0 20 0;
#X connect 45 0 24 0;
#X connect 46 0 28 0;
#X connect 47 0 53 0;
#X connect 48 0 53 0;
#X connect 49 0 53 0;
#X connect 50 0 53 0;
#X connect 51 0 53 0;
#X connect 52 0 53 0;
#X connect 53 0 59 0;
#X connect 54 0 53 0;
#X connect 55 0 53 0;
#X connect 56 0 58 0;
#X connect 57 0 56 0;
#X connect 57 1 56 1;
#X connect 58 0 47 0;
#X connect 58 1 48 0;
#X connect 58 2 49 0;
#X connect 58 3 50 0;
#X connect 58 4 51 0;
#X connect 58 5 52 0;
#X connect 58 6 54 0;
#X connect 58 7 55 0;
#X connect 60 0 2 0;
#X connect 61 0 2 0;
#X connect 62 0 34 0;
#X connect 63 0 35 0;
#X connect 64 0 37 0;
#X connect 65 0 32 0;
#X connect 66 0 33 0;
#X connect 67 0 36 0;
#X connect 68 0 38 0;
#X connect 69 0 43 0;
#X connect 69 0 44 0;
#X connect 69 0 45 0;
#X connect 69 0 46 0;
#X connect 70 0 40 0;
#X connect 70 0 39 0;
#X connect 70 0 41 0;
#X connect 70 0 42 0;
#X connect 70 0 69 0;
#X connect 71 0 70 0;
#X connect 72 0 71 0;
#X restore -149 215 pd togglers;
#X obj -166 122 midi_toggle 39 1;
#X obj -160 155 s toggleAll;
#X obj -31 127 tgl 15 0 empty empty empty 17 7 0 10 -262144 -1 -1 0
1;
#X connect 0 0 9 0;
#X connect 0 1 9 1;
#X connect 1 0 2 0;
#X connect 1 1 3 0;
#X connect 1 2 4 0;
#X connect 1 3 5 0;
#X connect 1 4 6 0;
#X connect 1 5 7 0;
#X connect 1 6 19 0;
#X connect 2 0 8 0;
#X connect 3 0 8 0;
#X connect 4 0 8 0;
#X connect 5 0 8 0;
#X connect 6 0 8 0;
#X connect 7 0 8 0;
#X connect 8 0 10 0;
#X connect 8 0 12 0;
#X connect 9 0 1 0;
#X connect 10 0 11 0;
#X connect 15 0 18 0;
#X connect 16 0 15 0;
#X connect 17 0 16 0;
#X connect 19 0 8 0;
#X connect 20 0 8 0;
#X connect 24 0 23 0;
#X connect 25 0 26 0;
#X connect 25 0 27 0;
