#N canvas 722 328 450 402 10;
#X obj 50 9 inlet;
#X obj 67 236 outlet;
#X obj 97 105 spell;
#X obj 97 134 sel 32;
#X msg 50 134 10;
#X obj 67 215 tof/from_ascii_code 10;
#X obj 67 194 f;
#X obj 50 34 t b a b;
#X msg 71 159 47;
#X obj 97 74 tosymbol;
#X connect 0 0 7 0;
#X connect 2 0 3 0;
#X connect 3 0 8 0;
#X connect 3 1 6 0;
#X connect 4 0 6 0;
#X connect 5 0 1 0;
#X connect 6 0 5 0;
#X connect 7 0 4 0;
#X connect 7 1 9 0;
#X connect 7 2 8 0;
#X connect 8 0 6 0;
#X connect 9 0 2 0;
