#N canvas 184 109 450 300 10;
#X obj 102 102 tgl 15 0 empty empty empty 17 7 0 10 -262144 -1 -1 0
1;
#X obj 79 55 inlet;
#X obj 68 136 spigot;
#X obj 67 177 outlet;
#X obj 206 77 inlet;
#X connect 0 0 2 1;
#X connect 1 0 2 0;
#X connect 2 0 3 0;
#X connect 4 0 0 0;
#X coords 0 -1 1 1 19 19 2 100 100;
